<mxfile host="Electron" agent="Mozilla/5.0 (Windows NT 10.0; Win64; x64) AppleWebKit/537.36 (KHTML, like Gecko) draw.io/24.7.8 Chrome/128.0.6613.36 Electron/32.0.1 Safari/537.36" version="24.7.8">
  <diagram name="Página-1" id="I49EaJT_FprpqmN6HYZB">
    <mxGraphModel dx="4834" dy="3382" grid="1" gridSize="10" guides="1" tooltips="1" connect="1" arrows="1" fold="1" page="1" pageScale="1" pageWidth="827" pageHeight="1169" math="0" shadow="0">
      <root>
        <mxCell id="0" />
        <mxCell id="1" style="locked=1;" parent="0" />
        <mxCell id="RitShuSk9gEBkKMNWxYW-19" value="RegiaoPrimary" style="" parent="0" />
        <mxCell id="RitShuSk9gEBkKMNWxYW-20" value="AWS Cloud" style="points=[[0,0],[0.25,0],[0.5,0],[0.75,0],[1,0],[1,0.25],[1,0.5],[1,0.75],[1,1],[0.75,1],[0.5,1],[0.25,1],[0,1],[0,0.75],[0,0.5],[0,0.25]];outlineConnect=0;html=1;whiteSpace=wrap;fontSize=12;fontStyle=0;container=0;pointerEvents=0;collapsible=0;recursiveResize=0;shape=mxgraph.aws4.group;grIcon=mxgraph.aws4.group_aws_cloud_alt;verticalAlign=top;align=left;spacingLeft=30;dashed=0;strokeWidth=4;" parent="RitShuSk9gEBkKMNWxYW-19" vertex="1">
          <mxGeometry x="-1140" y="-1000" width="2850" height="1840" as="geometry" />
        </mxCell>
        <mxCell id="RitShuSk9gEBkKMNWxYW-21" value="&lt;font style=&quot;font-size: 14px;&quot;&gt;&lt;strong&gt;Região Primária&lt;/strong&gt;: &lt;strong&gt;us-east-1&lt;/strong&gt; (Norte da Virgínia)&lt;/font&gt;" style="points=[[0,0],[0.25,0],[0.5,0],[0.75,0],[1,0],[1,0.25],[1,0.5],[1,0.75],[1,1],[0.75,1],[0.5,1],[0.25,1],[0,1],[0,0.75],[0,0.5],[0,0.25]];outlineConnect=0;html=1;whiteSpace=wrap;fontSize=12;fontStyle=0;container=0;pointerEvents=0;collapsible=0;recursiveResize=0;shape=mxgraph.aws4.group;grIcon=mxgraph.aws4.group_region;verticalAlign=top;align=left;spacingLeft=30;dashed=1;fillColor=none;strokeColor=#67AB9F;" parent="RitShuSk9gEBkKMNWxYW-19" vertex="1">
          <mxGeometry x="-940" y="-670" width="1350" height="1310" as="geometry" />
        </mxCell>
        <mxCell id="RitShuSk9gEBkKMNWxYW-50" value="RegiaSecundary" style="" parent="0" />
        <mxCell id="RitShuSk9gEBkKMNWxYW-51" value="&lt;b&gt;&lt;font style=&quot;font-size: 14px;&quot;&gt;Região Secundária (backup): eu-west-1 ( Ireland)&lt;/font&gt;&lt;/b&gt;" style="points=[[0,0],[0.25,0],[0.5,0],[0.75,0],[1,0],[1,0.25],[1,0.5],[1,0.75],[1,1],[0.75,1],[0.5,1],[0.25,1],[0,1],[0,0.75],[0,0.5],[0,0.25]];outlineConnect=0;gradientColor=none;html=1;whiteSpace=wrap;fontSize=12;fontStyle=0;container=0;pointerEvents=0;collapsible=0;recursiveResize=0;shape=mxgraph.aws4.group;grIcon=mxgraph.aws4.group_region;strokeColor=#00A4A6;fillColor=none;verticalAlign=top;align=left;spacingLeft=30;fontColor=#147EBA;dashed=1;" parent="RitShuSk9gEBkKMNWxYW-50" vertex="1">
          <mxGeometry x="510" y="-670" width="1100" height="1320" as="geometry" />
        </mxCell>
        <mxCell id="HRck63KKs1VqO-XyOJvi-50" value="&lt;font style=&quot;font-size: 14px;&quot;&gt;CloudFormation&lt;/font&gt;" style="sketch=0;points=[[0,0,0],[0.25,0,0],[0.5,0,0],[0.75,0,0],[1,0,0],[0,1,0],[0.25,1,0],[0.5,1,0],[0.75,1,0],[1,1,0],[0,0.25,0],[0,0.5,0],[0,0.75,0],[1,0.25,0],[1,0.5,0],[1,0.75,0]];points=[[0,0,0],[0.25,0,0],[0.5,0,0],[0.75,0,0],[1,0,0],[0,1,0],[0.25,1,0],[0.5,1,0],[0.75,1,0],[1,1,0],[0,0.25,0],[0,0.5,0],[0,0.75,0],[1,0.25,0],[1,0.5,0],[1,0.75,0]];outlineConnect=0;fontColor=#232F3E;fillColor=#E7157B;strokeColor=#ffffff;dashed=0;verticalLabelPosition=bottom;verticalAlign=top;align=center;html=1;fontSize=12;fontStyle=0;aspect=fixed;shape=mxgraph.aws4.resourceIcon;resIcon=mxgraph.aws4.cloudformation;" parent="RitShuSk9gEBkKMNWxYW-50" vertex="1">
          <mxGeometry x="-1060" y="41" width="78" height="78" as="geometry" />
        </mxCell>
        <mxCell id="RitShuSk9gEBkKMNWxYW-25" value="Vpc" style="" parent="0" />
        <mxCell id="RitShuSk9gEBkKMNWxYW-26" value="&lt;font color=&quot;#9933ff&quot; style=&quot;font-size: 15px;&quot;&gt;vpc-nova-tech-primary&lt;/font&gt;" style="points=[[0,0],[0.25,0],[0.5,0],[0.75,0],[1,0],[1,0.25],[1,0.5],[1,0.75],[1,1],[0.75,1],[0.5,1],[0.25,1],[0,1],[0,0.75],[0,0.5],[0,0.25]];outlineConnect=0;gradientColor=none;html=1;whiteSpace=wrap;fontSize=12;fontStyle=0;container=0;pointerEvents=0;collapsible=0;recursiveResize=0;shape=mxgraph.aws4.group;grIcon=mxgraph.aws4.group_vpc2;strokeColor=#8C4FFF;fillColor=none;verticalAlign=top;align=left;spacingLeft=30;fontColor=#AAB7B8;dashed=0;" parent="RitShuSk9gEBkKMNWxYW-25" vertex="1">
          <mxGeometry x="-920" y="-633" width="1080" height="1240" as="geometry" />
        </mxCell>
        <mxCell id="HRck63KKs1VqO-XyOJvi-47" value="&lt;font color=&quot;#9933ff&quot; style=&quot;font-size: 16px;&quot;&gt;vpc-nova-tech-secondary&lt;/font&gt;" style="points=[[0,0],[0.25,0],[0.5,0],[0.75,0],[1,0],[1,0.25],[1,0.5],[1,0.75],[1,1],[0.75,1],[0.5,1],[0.25,1],[0,1],[0,0.75],[0,0.5],[0,0.25]];outlineConnect=0;gradientColor=none;html=1;whiteSpace=wrap;fontSize=12;fontStyle=0;container=0;pointerEvents=0;collapsible=0;recursiveResize=0;shape=mxgraph.aws4.group;grIcon=mxgraph.aws4.group_vpc2;strokeColor=#8C4FFF;fillColor=none;verticalAlign=top;align=left;spacingLeft=30;fontColor=#AAB7B8;dashed=0;" parent="RitShuSk9gEBkKMNWxYW-25" vertex="1">
          <mxGeometry x="530" y="-630" width="1050" height="1260" as="geometry" />
        </mxCell>
        <mxCell id="RitShuSk9gEBkKMNWxYW-11" value="zonadispon" style="" parent="0" />
        <mxCell id="RitShuSk9gEBkKMNWxYW-30" value="&lt;font style=&quot;font-size: 14px;&quot;&gt;us-east-1b&lt;/font&gt;" style="fillColor=none;strokeColor=#147EBA;dashed=1;verticalAlign=top;fontStyle=0;fontColor=#147EBA;whiteSpace=wrap;html=1;" parent="RitShuSk9gEBkKMNWxYW-11" vertex="1">
          <mxGeometry x="-465" y="-240" width="310" height="710" as="geometry" />
        </mxCell>
        <mxCell id="RitShuSk9gEBkKMNWxYW-31" value="&lt;font style=&quot;font-size: 14px;&quot;&gt;us-east-1a&lt;/font&gt;" style="fillColor=none;strokeColor=#147EBA;dashed=1;verticalAlign=top;fontStyle=0;fontColor=#147EBA;whiteSpace=wrap;html=1;" parent="RitShuSk9gEBkKMNWxYW-11" vertex="1">
          <mxGeometry x="-875" y="-240" width="290" height="710" as="geometry" />
        </mxCell>
        <mxCell id="RitShuSk9gEBkKMNWxYW-27" value="Public/private" style="" parent="0" />
        <mxCell id="HRck63KKs1VqO-XyOJvi-5" value="Public subnet" style="points=[[0,0],[0.25,0],[0.5,0],[0.75,0],[1,0],[1,0.25],[1,0.5],[1,0.75],[1,1],[0.75,1],[0.5,1],[0.25,1],[0,1],[0,0.75],[0,0.5],[0,0.25]];outlineConnect=0;gradientColor=none;html=1;fontSize=12;fontStyle=0;container=1;pointerEvents=0;collapsible=0;recursiveResize=0;shape=mxgraph.aws4.group;grIcon=mxgraph.aws4.group_security_group;grStroke=0;strokeColor=#7AA116;fillColor=#F2F6E8;verticalAlign=top;align=left;spacingLeft=30;fontColor=#248814;dashed=0;" parent="RitShuSk9gEBkKMNWxYW-27" vertex="1">
          <mxGeometry x="-860" y="-200" width="240" height="140" as="geometry" />
        </mxCell>
        <mxCell id="HRck63KKs1VqO-XyOJvi-6" value="Public subnet" style="points=[[0,0],[0.25,0],[0.5,0],[0.75,0],[1,0],[1,0.25],[1,0.5],[1,0.75],[1,1],[0.75,1],[0.5,1],[0.25,1],[0,1],[0,0.75],[0,0.5],[0,0.25]];outlineConnect=0;gradientColor=none;html=1;whiteSpace=wrap;fontSize=12;fontStyle=0;container=1;pointerEvents=0;collapsible=0;recursiveResize=0;shape=mxgraph.aws4.group;grIcon=mxgraph.aws4.group_security_group;grStroke=0;strokeColor=#7AA116;fillColor=#F2F6E8;verticalAlign=top;align=left;spacingLeft=30;fontColor=#248814;dashed=0;" parent="RitShuSk9gEBkKMNWxYW-27" vertex="1">
          <mxGeometry x="-420" y="-200" width="240" height="140" as="geometry" />
        </mxCell>
        <mxCell id="HRck63KKs1VqO-XyOJvi-12" value="Private subnet" style="points=[[0,0],[0.25,0],[0.5,0],[0.75,0],[1,0],[1,0.25],[1,0.5],[1,0.75],[1,1],[0.75,1],[0.5,1],[0.25,1],[0,1],[0,0.75],[0,0.5],[0,0.25]];outlineConnect=0;gradientColor=none;html=1;whiteSpace=wrap;fontSize=12;fontStyle=0;container=1;pointerEvents=0;collapsible=0;recursiveResize=0;shape=mxgraph.aws4.group;grIcon=mxgraph.aws4.group_security_group;grStroke=0;strokeColor=#00A4A6;fillColor=#E6F6F7;verticalAlign=top;align=left;spacingLeft=30;fontColor=#147EBA;dashed=0;" parent="RitShuSk9gEBkKMNWxYW-27" vertex="1">
          <mxGeometry x="-860" width="240" height="160" as="geometry" />
        </mxCell>
        <mxCell id="HRck63KKs1VqO-XyOJvi-13" value="Private subnet" style="points=[[0,0],[0.25,0],[0.5,0],[0.75,0],[1,0],[1,0.25],[1,0.5],[1,0.75],[1,1],[0.75,1],[0.5,1],[0.25,1],[0,1],[0,0.75],[0,0.5],[0,0.25]];outlineConnect=0;gradientColor=none;html=1;whiteSpace=wrap;fontSize=12;fontStyle=0;container=1;pointerEvents=0;collapsible=0;recursiveResize=0;shape=mxgraph.aws4.group;grIcon=mxgraph.aws4.group_security_group;grStroke=0;strokeColor=#00A4A6;fillColor=#E6F6F7;verticalAlign=top;align=left;spacingLeft=30;fontColor=#147EBA;dashed=0;" parent="RitShuSk9gEBkKMNWxYW-27" vertex="1">
          <mxGeometry x="-420" y="10" width="240" height="160" as="geometry" />
        </mxCell>
        <mxCell id="HRck63KKs1VqO-XyOJvi-15" value="Private subnet" style="points=[[0,0],[0.25,0],[0.5,0],[0.75,0],[1,0],[1,0.25],[1,0.5],[1,0.75],[1,1],[0.75,1],[0.5,1],[0.25,1],[0,1],[0,0.75],[0,0.5],[0,0.25]];outlineConnect=0;gradientColor=none;html=1;whiteSpace=wrap;fontSize=12;fontStyle=0;container=1;pointerEvents=0;collapsible=0;recursiveResize=0;shape=mxgraph.aws4.group;grIcon=mxgraph.aws4.group_security_group;grStroke=0;strokeColor=#00A4A6;fillColor=#E6F6F7;verticalAlign=top;align=left;spacingLeft=30;fontColor=#147EBA;dashed=0;" parent="RitShuSk9gEBkKMNWxYW-27" vertex="1">
          <mxGeometry x="-860" y="250" width="240" height="150" as="geometry" />
        </mxCell>
        <mxCell id="HRck63KKs1VqO-XyOJvi-16" value="Private subnet" style="points=[[0,0],[0.25,0],[0.5,0],[0.75,0],[1,0],[1,0.25],[1,0.5],[1,0.75],[1,1],[0.75,1],[0.5,1],[0.25,1],[0,1],[0,0.75],[0,0.5],[0,0.25]];outlineConnect=0;gradientColor=none;html=1;whiteSpace=wrap;fontSize=12;fontStyle=0;container=1;pointerEvents=0;collapsible=0;recursiveResize=0;shape=mxgraph.aws4.group;grIcon=mxgraph.aws4.group_security_group;grStroke=0;strokeColor=#00A4A6;fillColor=#E6F6F7;verticalAlign=top;align=left;spacingLeft=30;fontColor=#147EBA;dashed=0;" parent="RitShuSk9gEBkKMNWxYW-27" vertex="1">
          <mxGeometry x="-420" y="260" width="240" height="150" as="geometry" />
        </mxCell>
        <mxCell id="RitShuSk9gEBkKMNWxYW-22" value="RegiaoSecundary" style="" parent="0" />
        <mxCell id="RitShuSk9gEBkKMNWxYW-2" value="Entrada" style="" parent="0" />
        <mxCell id="AdwZOULkYBbnNzE8PJ5Z-1" style="edgeStyle=orthogonalEdgeStyle;rounded=0;orthogonalLoop=1;jettySize=auto;html=1;" parent="RitShuSk9gEBkKMNWxYW-2" source="RitShuSk9gEBkKMNWxYW-7" target="RitShuSk9gEBkKMNWxYW-8" edge="1">
          <mxGeometry relative="1" as="geometry" />
        </mxCell>
        <mxCell id="AdwZOULkYBbnNzE8PJ5Z-6" style="edgeStyle=orthogonalEdgeStyle;rounded=0;orthogonalLoop=1;jettySize=auto;html=1;" parent="RitShuSk9gEBkKMNWxYW-2" source="RitShuSk9gEBkKMNWxYW-7" target="RitShuSk9gEBkKMNWxYW-78" edge="1">
          <mxGeometry relative="1" as="geometry" />
        </mxCell>
        <mxCell id="AdwZOULkYBbnNzE8PJ5Z-4" style="edgeStyle=orthogonalEdgeStyle;rounded=0;orthogonalLoop=1;jettySize=auto;html=1;" parent="RitShuSk9gEBkKMNWxYW-2" source="RitShuSk9gEBkKMNWxYW-8" target="RitShuSk9gEBkKMNWxYW-9" edge="1">
          <mxGeometry relative="1" as="geometry" />
        </mxCell>
        <mxCell id="AdwZOULkYBbnNzE8PJ5Z-10" style="edgeStyle=orthogonalEdgeStyle;rounded=0;orthogonalLoop=1;jettySize=auto;html=1;" parent="RitShuSk9gEBkKMNWxYW-2" source="RitShuSk9gEBkKMNWxYW-13" target="RitShuSk9gEBkKMNWxYW-33" edge="1">
          <mxGeometry relative="1" as="geometry" />
        </mxCell>
        <mxCell id="RitShuSk9gEBkKMNWxYW-16" value="&lt;font style=&quot;font-size: 13px;&quot;&gt;Processamento de&lt;/font&gt;&lt;div style=&quot;font-size: 13px;&quot;&gt;&lt;font style=&quot;font-size: 13px;&quot;&gt;Transações&lt;/font&gt;&lt;/div&gt;" style="sketch=0;outlineConnect=0;fontColor=#000000;gradientColor=none;fillColor=#ED7100;strokeColor=none;dashed=0;verticalLabelPosition=bottom;verticalAlign=top;align=center;html=1;fontSize=12;fontStyle=0;aspect=fixed;pointerEvents=1;shape=mxgraph.aws4.lambda_function;" parent="RitShuSk9gEBkKMNWxYW-2" vertex="1">
          <mxGeometry x="-220" y="-534" width="58" height="58" as="geometry" />
        </mxCell>
        <mxCell id="RitShuSk9gEBkKMNWxYW-17" value="&lt;font&gt;Atualização de&amp;nbsp;&lt;/font&gt;&lt;div&gt;&lt;font&gt;Estoque&lt;/font&gt;&lt;/div&gt;" style="sketch=0;outlineConnect=0;fontColor=#000000;gradientColor=none;fillColor=#ED7100;strokeColor=none;dashed=0;verticalLabelPosition=bottom;verticalAlign=top;align=center;html=1;fontSize=12;fontStyle=0;aspect=fixed;pointerEvents=1;shape=mxgraph.aws4.lambda_function;" parent="RitShuSk9gEBkKMNWxYW-2" vertex="1">
          <mxGeometry x="-420" y="-516" width="58" height="58" as="geometry" />
        </mxCell>
        <mxCell id="RitShuSk9gEBkKMNWxYW-18" value="&lt;font&gt;Envio de Notificações&amp;nbsp;&lt;/font&gt;&lt;div&gt;&lt;font&gt;por E-mail ou SMS&lt;/font&gt;&lt;br&gt;&lt;br&gt;&lt;/div&gt;" style="sketch=0;outlineConnect=0;fontColor=#000000;gradientColor=none;fillColor=#ED7100;strokeColor=none;dashed=0;verticalLabelPosition=bottom;verticalAlign=top;align=center;html=1;fontSize=12;fontStyle=0;aspect=fixed;pointerEvents=1;shape=mxgraph.aws4.lambda_function;" parent="RitShuSk9gEBkKMNWxYW-2" vertex="1">
          <mxGeometry x="-330" y="-582" width="58" height="58" as="geometry" />
        </mxCell>
        <mxCell id="AdwZOULkYBbnNzE8PJ5Z-12" style="edgeStyle=orthogonalEdgeStyle;rounded=0;orthogonalLoop=1;jettySize=auto;html=1;" parent="RitShuSk9gEBkKMNWxYW-2" source="RitShuSk9gEBkKMNWxYW-33" target="RitShuSk9gEBkKMNWxYW-34" edge="1">
          <mxGeometry relative="1" as="geometry" />
        </mxCell>
        <mxCell id="RitShuSk9gEBkKMNWxYW-37" value="&lt;font color=&quot;#000000&quot;&gt;S3-backup-eu-west&lt;/font&gt;" style="sketch=0;outlineConnect=0;fontColor=#FFFFFF;gradientColor=none;fillColor=#7AA116;strokeColor=none;dashed=0;verticalLabelPosition=bottom;verticalAlign=top;align=center;html=1;fontSize=14;fontStyle=0;aspect=fixed;pointerEvents=1;shape=mxgraph.aws4.backup_aws_backup_support_for_amazon_s3;fillStyle=auto;strokeWidth=2;spacingLeft=30;fontFamily=Helvetica;" parent="RitShuSk9gEBkKMNWxYW-2" vertex="1">
          <mxGeometry x="566" y="38" width="80" height="80" as="geometry" />
        </mxCell>
        <mxCell id="AdwZOULkYBbnNzE8PJ5Z-20" style="edgeStyle=orthogonalEdgeStyle;rounded=0;orthogonalLoop=1;jettySize=auto;html=1;" parent="RitShuSk9gEBkKMNWxYW-2" source="RitShuSk9gEBkKMNWxYW-57" target="HRck63KKs1VqO-XyOJvi-45" edge="1">
          <mxGeometry relative="1" as="geometry" />
        </mxCell>
        <mxCell id="RitShuSk9gEBkKMNWxYW-76" value="&lt;font color=&quot;#000000&quot;&gt;CloudWatch-nova-tech&lt;/font&gt;" style="sketch=0;points=[[0,0,0],[0.25,0,0],[0.5,0,0],[0.75,0,0],[1,0,0],[0,1,0],[0.25,1,0],[0.5,1,0],[0.75,1,0],[1,1,0],[0,0.25,0],[0,0.5,0],[0,0.75,0],[1,0.25,0],[1,0.5,0],[1,0.75,0]];points=[[0,0,0],[0.25,0,0],[0.5,0,0],[0.75,0,0],[1,0,0],[0,1,0],[0.25,1,0],[0.5,1,0],[0.75,1,0],[1,1,0],[0,0.25,0],[0,0.5,0],[0,0.75,0],[1,0.25,0],[1,0.5,0],[1,0.75,0]];outlineConnect=0;fontColor=#FFFFFF;fillColor=#E7157B;strokeColor=#ffffff;dashed=0;verticalLabelPosition=bottom;verticalAlign=top;align=center;html=1;fontSize=14;fontStyle=0;aspect=fixed;shape=mxgraph.aws4.resourceIcon;resIcon=mxgraph.aws4.cloudwatch_2;fillStyle=auto;pointerEvents=0;strokeWidth=2;spacingLeft=30;fontFamily=Helvetica;" parent="RitShuSk9gEBkKMNWxYW-2" vertex="1">
          <mxGeometry x="-1060" y="-171" width="80" height="80" as="geometry" />
        </mxCell>
        <mxCell id="RitShuSk9gEBkKMNWxYW-77" value="cost-explorer-nova-tech" style="sketch=0;points=[[0,0,0],[0.25,0,0],[0.5,0,0],[0.75,0,0],[1,0,0],[0,1,0],[0.25,1,0],[0.5,1,0],[0.75,1,0],[1,1,0],[0,0.25,0],[0,0.5,0],[0,0.75,0],[1,0.25,0],[1,0.5,0],[1,0.75,0]];outlineConnect=0;fontColor=#000000;fillColor=#7AA116;strokeColor=#ffffff;dashed=0;verticalLabelPosition=bottom;verticalAlign=top;align=center;html=1;fontSize=14;fontStyle=0;aspect=fixed;shape=mxgraph.aws4.resourceIcon;resIcon=mxgraph.aws4.cost_explorer;fillStyle=auto;pointerEvents=0;strokeWidth=2;spacingLeft=30;fontFamily=Helvetica;" parent="RitShuSk9gEBkKMNWxYW-2" vertex="1">
          <mxGeometry x="-1060" y="289" width="80" height="80" as="geometry" />
        </mxCell>
        <mxCell id="iLJg1Nqkd7DHadfPgVe_-2" value="" style="sketch=0;outlineConnect=0;fontColor=#232F3E;gradientColor=none;fillColor=#8C4FFF;strokeColor=none;dashed=0;verticalLabelPosition=bottom;verticalAlign=top;align=center;html=1;fontSize=12;fontStyle=0;aspect=fixed;pointerEvents=1;shape=mxgraph.aws4.nat_gateway;" parent="RitShuSk9gEBkKMNWxYW-2" vertex="1">
          <mxGeometry x="-685" y="-180" width="48" height="48" as="geometry" />
        </mxCell>
        <mxCell id="iLJg1Nqkd7DHadfPgVe_-3" value="" style="sketch=0;outlineConnect=0;fontColor=#232F3E;gradientColor=none;fillColor=#8C4FFF;strokeColor=none;dashed=0;verticalLabelPosition=bottom;verticalAlign=top;align=center;html=1;fontSize=12;fontStyle=0;aspect=fixed;pointerEvents=1;shape=mxgraph.aws4.nat_gateway;" parent="RitShuSk9gEBkKMNWxYW-2" vertex="1">
          <mxGeometry x="-243" y="-190" width="48" height="48" as="geometry" />
        </mxCell>
        <mxCell id="iLJg1Nqkd7DHadfPgVe_-7" value="" style="edgeStyle=orthogonalEdgeStyle;html=1;endArrow=openThin;elbow=vertical;startArrow=none;endFill=0;strokeColor=#545B64;rounded=0;entryX=0.5;entryY=0;entryDx=0;entryDy=0;entryPerimeter=0;" parent="RitShuSk9gEBkKMNWxYW-2" source="RitShuSk9gEBkKMNWxYW-6" target="RitShuSk9gEBkKMNWxYW-7" edge="1">
          <mxGeometry width="100" relative="1" as="geometry">
            <mxPoint x="40" y="-840" as="sourcePoint" />
            <mxPoint x="140" y="-840" as="targetPoint" />
          </mxGeometry>
        </mxCell>
        <mxCell id="HRck63KKs1VqO-XyOJvi-4" value="" style="shape=image;verticalLabelPosition=bottom;labelBackgroundColor=default;verticalAlign=top;aspect=fixed;imageAspect=0;image=data:image/jpeg,/9j/4AAQSkZJRgABAQAAAQABAAD/2wCEAAYGBgYHBgcICAcKCwoLCg8ODAwODxYQERAREBYiFRkVFRkVIh4kHhweJB42KiYmKjY+NDI0PkxERExfWl98fKcBBgYGBgcGBwgIBwoLCgsKDw4MDA4PFhAREBEQFiIVGRUVGRUiHiQeHB4kHjYqJiYqNj40MjQ+TERETF9aX3x8p//CABEIBDgEOAMBIgACEQEDEQH/xAAyAAEAAgMBAQAAAAAAAAAAAAAABQYCAwQBBwEBAAMBAQAAAAAAAAAAAAAAAAECAwQF/9oADAMBAAIQAxAAAAK1AAAAAAAAAAAAAAAAAAAAAAAAAAAAAAAAAAAAAAAAAAAAAAAAAAAAAAAAAAAAAAAAAAAAAAAAAAAAAAAAAAAAAAAAAAAAAAAAAAAAAAAAAAAAAAAAAAAAAAAAAAAAAAAAAAAAAAAAAAAAAAAAAAAAAAAAAAAAAAAAAAAAAAAAAAAAAAAAAAAAAAAAAAAAAAAAAAAAAAAAAAAAAAAAAAAAAAAAAAAAAAAAAAAAAAAAAAAAAAAAAAAAAAAAAAAAAAAAAAAAAAAAAAAAAAAAAAAAAAAAAAAAAAAAAAAAAAAAAAAAAAAAAAAAAAAAAAAAAAAAAAAAAAAAAAAAAAAAAAAAAAAAAAAAAAAAAAAAAAAAAAAAAAAAAAAAAAAAAAAAAAAAAAAAAAAAAAAAAAAAAAAAAAAAAAAAAAAAAAAAAAAAAAAAAAAAAAAAAAAAAAAAAAAAAAAAAAAAAAAAAAAAAAAAAAAAAAAAAAAAAAAAAAAAAAAAAAAAAAAAAAAAAAAAAAAAAAAAAAAAAAAAAAAAAAAAAAAAAAAAAAAAAAAAAAAAAAAAAAAAAAAAAAAAAAAAAAAAAAAAAAAAAAAAAAAAAAAAAAAAAAAAAAAAAAAAAAAAAAAAAAAAAAAAAAAAAAAAAAAAAAAAAAAAAAAAAAAAAAAAAAAAAAAAAAAAAAAAAAAAAAAAAAAAAAAAAAAAAAAAAAAAAAAAAAAAAAAAAAAAAAAAAAAAAAAAAAAAAAAAAAAAAAAAAAAAAAAAAAAAAAAAAAAAAAAAAAAAAAAAAAAAAAAAAAAAAAAAAAAAAAAAAAAAAAAAAAAAAAAAAAAAAAAAAAAAAAAAAAAAAAAAAAAAAAAAAAAAAAAAAAAAAAAAAAAAAAAAAAAAAAAAAAAAAAAAAAAAAAAAAAAAAAAAAAAAAAAAAAAAAAAAAAAAAAAAAAAAAAAAAAAAAAAAAAAAAAAAAAAAAAAAAAAAAAAAAAAAAAAAAAAAAAAAAAAAAAAAAAAAAAAAAAAAAAAAAAAAAAAAAAAAAAAAAAAAAAAAAAAAAAAAAAAAAAAAAAAAAAAAAAAAAAAAAAAAAAAAAAAAAAAAAAAAAAAAAAAAAAAAAAAAAAAAAAAAAAAAAAAAAAAAAAAAAAAAAAAAAAAAAAAAAAAAAAAAAAAAAAAAAAAAAAAAAAAAAAAAAAAAAAAAAAAAAAAAAAAAAAAAAAAAAAAAAAAAAAAAAAAAAAAAAAAAAAAAAAAAAAAAAAAAAAAAAAAAAAAAAAAAAAAAAAAAAAAAAAAAAAAAAAAAAAAAAAAAAAAAAAAAAAAAAAAAAAAAAAAAAAAAAAAAAAAAAAAAAAAAAAAAAAAAAAAAAAAAAAAAAAAAAAAAAAAAAAAAAAAAAAAAAAAAAAAAAAAAAAAAAAAAAAAAAAAAAAAAAAAAAAAAAAAAAAAAAAAAAAAAAAAAAAAAAAAAAAAAAAAAAAAAAAAAAAAAAAAAAAAAAAAAAAAAAAAAAAAAAAAAAAAAAAAAAAAAAAAAAAAAAAAAAAAAAAAAAAAAAAAAAAAAAAAAAAAAAAAAAAAAAAAAAAAAAAAAAAAAAAAAAAAAAAAAAAAAAAAGtXY4tV8JJGJrJozJMi4+muuYrqAAAACDRz2x70bjbKURmRIuLorttFdQSAAAAAAAAAAAAAAAAAAAAAAAAAAAAAAAAAAAAAAAAAAAAAAAAAMUZc3Djt5/vu7bfHXua6bbfebFHXjyJpv0+e2x87eLUmaRMtj6YU3BDDh59eLfoz6NOLn2dedOjlzywi/vnnk1x1dGU58fXjomsqh5LLv3CnSAAAAAAAAAAAAAAAAAAAAAAAAAAAAAAAAAAAAAAAAAAAAAAANKvsR5t6vH93eexGzToxtXNxc1olkT7G0r5E4zEw4Oqefb5h6jOZ17eX2Bx036InXu6fJbs+itmPHoadOnm49OeVQ+SZbyKwmJjyO7LY9GzmVr1aG2t+rrhJDH0+sZdoAAAAAAAAAAAAAAAAAAAAAAAAAAAAAAAAAAAAAAAAAAAAAHkJuw6fJbNey3J7zuG1tuqRmcfTjpEx6wiWORENC3NpnU7Hh2TQcee2Mdju7PGy69emk9HFqjr27uHvseXZATHQx6grYDjhLOvSnyElWunzpTLTlp5/XzZZ0tK7YCf5fbCm4AAAAAAAAAAAAAAAAAAAAAAAAAAAAAAAAAAAAAAAAAAADTuib46NrHq8L3DzXMaJLksOHshh1gAAADxGmC997PJz6dOm2Gzn18s7eWffv5PUDPQAAABz9BFMkJKv8Ab5vdu0ZacCVjtePZYhyesAAAAAAAAAAAAAAAAAAAAAAAAAAAAAAAAAAAAAAAAAAAAgJyD38/p1btGvmeR0hzz1WTI4vYBIAAACB7YTp4t2zT70edlow5m+Vxx38XqHkPW0yi5SARIAAACp2yK0pG+8nT3+L08fTz0Wn3j7OD3AiQAAAAAAAAAAAAAAAAAAAAAAAAAAAAAAAAAAAAAAAAAAOaLkY7p8vo59+i/Bz90bM09OQHN6AAAAA4ZrAeaffR8vdqxxljZoyy8foMM6pnfTs2Yej52iZjMsui1jg7AAAAGvYRSO2P7vT8zfg8jnk5aEm+D2QpcAAAAAAAAAAAAAAAAAAAAAAAAAAAAAAAAAAAAAAAAAADkjJiE6fM69WzC/ncEzFddfUmhy+gAAAAjpHya0l7q9DhzywtuWvYcPJ1cUbp6u/zscXm+euQhbxyd2wcfQAAAANKKV28Hb6nnbvGpjKTkRL+d6wUsAAAAAAAAAAAAAAAAAAAAAAAAAAAAAAAAAAAAAAAAAAArVlru/H1+PdfH5efqj79lvaN/B64JAAAA84u5MY5MIYVHLp7eRh7h08bk27adMpNnm9wRIAAACHmKVpXV068/U87dydPDnNw7Dy/RBIAAAAAAAAAAAAAAAAAAAAAAAAAAAAAAAAAAAAAAAAAACNkk0r/AER/f2+E5OzSrx2qq7s/Wsg5ewAAAARkx21Tzt7OPHbt4NeXDX5x6bbb1z9Pm94Z2AAAAHKjiq7d6HPs9w96+bLoi7pw9PYOLpAAAAAAAAAAAAAAAAAAAAAAAAAAAAAAAAAAAAAAAAAAAAAjoqzV3o4+pydevlaOOU02tw2Wv8dPQuSryXP2Szk2UtvcfDMTWitaNserT1dnRxaN6GiN3Ljyb7e3DXLed2iu52921Do68voamTmNpdq243GBmjILSJ2qebezDzLz3qx91+6s7yVuwz8vrCsgAAAAAAAAAAAAAAAAAAAAAAAAAAAAAAAAAAAAAAAAAAAAAirLRWerk7/a/JacPbp3ZRjxc8r5NobyZTeJ3yHqnPt84YmR4I3Xfq269PRPRzXLp38PSGdoSod/B0UHukNuv29duenK9NuDK8M3t6PfEvccMcr43fzt8/oDOwAAAAAAAAAAAAAAAAAAAAAAAAAAAAAAAAAAAAAAAAAAAAAAAERXL15tlROySg98ZHZBLYz2EKmJXm48Zvu80dVdtHljn8NYGfMLhEgeVW1pj5uv1d3rDZNe9N2WrLWmz3X5aNzmVnfzy1j5tK7bM3NoFZAAAAAAAAAAAAAAAAAAAAAAAAAAAAAAAAAAAAAAAAAAAAAAAAAAA0cEsmIDywJQPVKIatpEgAAAAAOTrEPon1ogNs0OHt9VkAAAAAAAAAAAAAAAAAAAAAAAAAAAAAAAAAAAAAAAAAAAAAAAAAAAAAAAAAAAAAAAAAAAAAAAAAAAAAAAAAAAAAAAAAAAAAAAAAAAAAAAAAAAAAAAAAAAAAAAAAAAAAAAAAAAAAAAAAAAAAAAAAAAAAAAAAAAAAAAAAAAAAAAAAAAAAAAAAAAAAAAAAAAAAAAAAAAAAAAAAAAAAAAAAAAAAAAAAAAAAAAAAAAAAAAAAAAAB57S5i5ZfOvosmOUNWZlUrbMBEikzF0y+ffQZCJrMk+b+6x9HfOB9G2/NLfVOEPSZTZ80u94lBSccqTY7RJisjQZ7PmdnvFlFJYV+r3j6W5eqktdbrmkfR/PnCX0d84H0fb8zvNUnq20yq37Pml3slBSTyg2i97Pnn0I9FZc3Lp0p1a881dXXz8Ep5HyGdwi2vZDzFqBW4AA4pp2cnF06c2WzDAkEPJV13Cm4wRjtipW2YV1GtXzbES9qBXXn08PRtzbcteKe3dBewnGOWW4JAAAAAAAAAAAAUq60u8Rv0b5z9GkhZqFops5Buh9MUm64PaPeKPLk+h/PPockTLRNFJsVdu+zWmWKFkuglDzEOimXej3jVKDGaLHyEb01usv80t+Uzmjfpzn5zZqzZ94sowmtVmzVnet/7OPswtx8M0lB1D6X811jusMVcKoWW2KSwzQ+d+2+kdEfScqfN4oaC8smyXkTnlHyFdtXrl8M4BFgNewQCYKdgZ7TIM9QAOXi1y2vJs9MuoE4xMxx35+nOMk40atuqLRkxDzF8Qz6GrbqmsVNQk3fEM+iBmYSb1x2jLZHyCawE/AyWmfYMtgAAAAAAAAAAAFLulLvEb9G+c/RpIWahaKbMQ972UWQnKpMfR6Xo9rOr6F89+hVImWiaTSZCP39ESXvAqtkrX7BiQ8xDlLvNGvGqUGM0Xk6+bor0x30qk1mYmfnM9CBs1Ys91mHPNbrFnrG8X/s4+zCQHzX6V811iauFPuFQUkBVrSl8z2b+Tpjtv/D3c4Kzqgp+t3rZxSwAAAFfsFdsV8wpoACK7YqzZtcAy6AGOWCIKwV2xa4tO7TnrGTMJN2zCmzTu0TWJnYGevQM9a7PV6xaZ5jPQCI9w91ymBlqAAAAAAAAAAAApd0pd4jfo3zn6NJCzULRTb3RL3qkYOcZT81xu1M3ru+h/PPoecoiXiKTSbtSbvrEsMZAQ8xDzFLvFHvGqUGM0Tm6ebor9EHPalw/0yn7RB2WtWWyzjnmt1e01beL/ANvF24SA+afS/mmsTVxp1xqCkgAUyHmIjePpQwkBXbFyTGPbWpqXWKyOQ63N0gFbslZs16BS4AEDJbYHbCyuTrx2BKMziNcZCXwzpdjkrauWOA7dspIY7OTrgL02TcdIgUvWLJWbNpTMZ3PIKY5J6Hsd6hncAAAAAAAAAAABTLmmPnf0QkhplWfml7kFoCso6RFBv2GcwipVE/NbrKrwFJARMsPm13kl4Ck0bm+hLwFJAqe2z6rxtFJr1W+lLxx9hSQHzX6VjaKlbyARIAFNifpC8BSQAOOFsyYrnVI6ZRuuc6IR8gRIFX3WDy9IBP8AiYHdM5Q9FbOfoIrmFmw0pB6ZzfMQE3uUsFbgY12yLUrO+a03rBd0xlEhnoBVcLZhetZWbIqcnNoBWwAAAAAAAAAAAAAAAAAAAAAAAAAAAAAAAAAAAAAAAAAAAAAAAAAAAAAAAAAAAAAAAAAAAAAAAAAAAAAAAAAAAAAAAAAAAAAAAAAAAAAAAAAAAAAAAAAAAAAAAAAAAAAAAAAAAAAAAAAAAAAAAAAAAAAAAAAAAAAAAAAAAAAAAAAAAAAAAAAAAAAAAAAAAAAAAAAAAAAAAAAAAAAAAAAAAAAAAAAAAAAAAAAAAAAAAAAAAAAAAAAAAAAAAAAAAAAAAAAAAAAAAAAAAAAAAAAAAAAAAAAAAAAAAAAAAAAAAAAAAAAAAAAAAAAAAAAAAAAAAAAAAAAAAAAAAAAAAAAAAAAAAAAAAAAAAAAAAAAAAAAAAAAAAAAAAAAAAAAAAAAAAAAAAAAAAAAAAAAAAAAAAAAAAAAAAAAAAAAAAAAAAAAAAAAAAAAAAAAAAAAAAAAAAAAAAAAAAAAAAAAAAAAAAAAAAAAAAAAAAAAAAAAAAAAAAAAAAAAAAAAAAAAAAAAAAAAAAAAAAAAAAAAAAAAAAAAAAAAAAAAAAAAAAAAAAAAAAAAAAAAAAAAAAAAAAAAAAAAAAAAAAAAAAAAAAAAAAAAAAAAAAAAAAAAAAAAAAAAAAAAAAAAAAAAAAAAAAAAAAAAAAAAAAAAAAAAAAAAAAAAAAAAAAAAAAAAAAAAAAAAAAAAAAAAAAAAAAAAAAAAAAAAAAAAAAAAAAAAAAAAAAAAAAAAAAAAAAAAAAAAAAAAAAAAAAAAAAAAAAAAAAAAAAAAAAAAAAAAAAAAAAAAAAAAAAAAAAAAAAAAAAAAAAAAAAAAAAAAAAAAAAAAAAAAAAAAAAAAAAAAAAAAAAAAAAAAAAAAAAAAAAAAAAAAAAAAAAAAAAAAAAAAAAAAAAAAAAAAAAAAAAAAAAAAAAAAAAAAAAAAAAAAAAAAAAAAAAAAAAAAAAAAAAAAAAAAAAAAAAAAAAAAAAAAAAAAAAAAAAAAAAAAAAAAAAAAAAAAAAAAAAAAAAAAAAAAAAAAAAAAAAAAAAAAAAAAAAAAAAAAAAAAAAAAAAAAAAAAAAAAAAAAAAAAAAAAAAAAAAAAAAAAAAAAAAAAAAAAAAAAAAAAAAAAAAAAAAAAAAAAAAAAAAAAAAAAAAAAAAAAAAAAAAAAAAAAAAAAAAAAAAAAAAAAAAAAAAAAAAAAAAAAAAAAAAAAAAAAAAAAAAAAAAAAAAAAAAAAAAAAAAAAAAAAAAAAAAAAAAAAAAAAAAAAAAAAAAAAAAAAAAAAAAAAAAAAAAAAAAAAAAAAAAAAAAAAAAAAAAAAAAAAAAAAAAAAAAAAAAAAAAAAAAAAAAAAAAAAAAAAAAAAAAAAAAAAAAAAAAAAAAAAAAAAAAAAAAAAAAAAAAAAAAAAAAAAAAAAAAAAAAAAAAAAAAAAAAAAAAAAAAAAAAAAAAAAAAAAAAAAAAAAAAAAAAAAAAAAAAAAAAAAAAAAAAAAAAAAAAAAAAAAAAAAAAAAAAAAAAAAAAAAAAAAAAAAAAAAAAAAAAAAAAAAAAAAAAAAAAAAAAAAAAAAAAAAAAAAAAAAAAAAAAAAH/8QAAv/aAAwDAQACAAMAAAAhAAAAAAAAAAAAAAAAAAAAAAAAAAAAAAAAAAAAAAAAAAAAAAAAAAAAAAAAAAAAAAAAAAAAAAAAAAAAAAAAAAAAAAAAAAAAAAAAAAAAAAAAAAAAAAAAAAAAAAAAAAAAAAAAAAAAAAAAAAAAAAAAAAAAAAAAAAAAAAAAAAAAAAAAAAAAAAAAAAAAAAAAAAAAAAAAAAAAAAAAAAAAAAAAAAAAAAAAAAAAAAAAAAAAAAAAAAAAAAAAAAAAAAAAAAAAAAAAAAAAAAAAAAAAAAAAAAAAAAAAAAAAAAAAAAAAAAAAAAAAAAAAAAAAAAAAAAAAAAAAAAAAAAAAAAAAAAAAAAAAAAAAAAAAAAAAAAAAAAAAAAAAAAAAAAAAAAAAAAAAAAAAAAAAAAAAAAAAAAAAAAAAAAAAAAAAAAAAAAAAAAAAAAAAAAAAAAAAAAAAAAAAAAAAAAAAAAAAAAAAAAAAAAAAAAAAAAAAAAAAAAAAAAAAAAAAAAAAAAAAAAAAAAAAAAAAAAAAAAAAAAAAAAAAAAAAAAAAAAAAAAAAAAAAAAAAAAAAAAAAAAAAAAAAAAAAAAAAAAAAAAAAAAAAAAAAAAAAAAAAAAAAAAAAAAAAAAAAAAAAAAAAAAAAAAAAAAAAAAAAAAAAAAAAAAAAAAAAAAAAAAAAAAAAAAAAAAAAAAAAAAAAAAAAAAAAAAAAAAAAAAAAAAAAAAAAAAAAAAAAAAAAAAAAAAAAAAAAAAAAAAAAAAAAAAAAAAAAAAAAAAAAAAAAAAAAAAAAAAAAAAAAAAAAAAAAAAAAAAAAAAAAAAAAAAAAAAAAAAAAAAAAAAAAAAAAAAAAAAAAAAAAAAAAAAAAAAAAAAAAAAAAAAAAAAAAAAAAAAAAAAAAAAAAAAAAAAAAAAAAAAAAAAAAAAAAAAAAAAAAAAAAAAAAAAAAAAAAAAAAAAAAAAAAAAAAAAAAAAAAAAAAAAAAAAAAAAAAAAAAAAAAAAAAAAAAAAAAAAAAAAAAAAAAAAAAAAAAAAAAAAAAAAAAAAAAAAAAAAAAAAAAAAAAAAAAAAAAAAAAAAAAAAAAAAAAAAAAAAAAAAAAAAAAAAAAAAAAAAAAAAAAAAAAAAAAAAAAAAAAAAAAAAAAAAAAAAAAAAAAAAAAAAAAAAAAAAAAAAAAAAAAAAAAAAAAAAAAAAAAAAAAAAAAAAAAAAAAAAAAAAAAAAAAAAAAAAAAAAAAAAAAAAAAAAAAAAAAAAAAAAAAAAAAAAAAAAAAAAAAAAAAAAAAAAAAAAAAAAAAAAAAAAAAAAAAAAAAAAAAAAAAAAAAAAAAAAAAAAAAAAAAAAAAAAAAAAAAAAAAAAAAAAAAAAAAAAAAAAAAAAAAAAAAAAAAAAAAAAAAAAAAAAAAAAAAAAAAAAAAAAAAAAAAAAAAAAAAAAAAAAAAAAAAAAAAAAAAAAAAAAAAAAAAAAAAAAAAAAAAAAAAAAAAAAAAAAAAAAAAAAAAAAAAAAAAAAAAAAAAAAAAAAAAAAAAAAAAAAAAAAAAAAAAAAAAAAAAAAAAAAAAAAAAAAAAAAAAAAAAAAAAAAAAAAAAAAAAAAAAAAAAAAAAAAAHJFIAAAAAABGGDIBAAAAAAAAAAAAAAAAAAAAAAAAAAAAAAAAAAAAAAAAAAAAAAAAAACHENjb5yIABa7KulLbOAAAAAAAAAAAAAAAAAAAAAAAAAAAAAAAAAAAAAAAAAAAAAAAADdqljLU/6xFLY0+3XQb+iAAAAAAAAAAAAAAAAAAAAAAAAAAAAAAAAAAAAAAAAAAAAAAA6vyCgABjyAhZmPBAAgDdXrAAAAAAAAAAAAAAAAAAAAAAAAAAAAAAAAAAAAAAAAAAAAAAkNTAAAAAFTobqAAAAAT/AMXwAAAAAAAAAAAAAAAAAAAAAAAAAAAAAAAAAAAAAAAAAAAAC4sAQAAAADFeQACAAAAAFDVaAAAAAAAAAAAAAAAAAAAAAAAAAAAAAAAAAAAAAAAAAAAADDvgAAAAARWAE3JQAAAAA3DCAAAAAAAAAAAAAAAAAAAAAAAAAAAAAAAAAAAAAAAAAAAAACrQAAAAA2/xQ6gAAAAAB38KAAAAAAAAAAAAAAAAAAAAAAAAAAAAAAAAAAAAAAAAAAAABNPAwAAAAIA5qgYQAAAABITIwAAAAAAAAAAAAAAAAAAAAAAAAAAAAAAAAAAAAAAAAAAAE3T7wAAAABju98AAAAAB/iZwAAAAAAAAAAAAAAAAAAAAAAAAAAAAAAAAAAAAAAAAAAAAAFlt5QABx6F3exeDSxRuqTqgAAAAAAAAAAAAAAAAAAAAAAAAAAAAAAAAAAAAAAAAAAAAAAbkuXoAQ7BIACzAl1dbNywAAAAAAAAAAAAAAAAAAAAAAAAAAAAAAAAAAAAAAAAAAAAAAAAMdt1QQkgQAM1jhPPU0QAAAAAAAAAAAAAAAAAAAAAAAAAAAAAAAAAAAAAAAAAAAAAAAAAAAAYkwAAAAAAEsccgAAAAAAAAAAAAAAAAAAAAAAAAAAAAAAAAAAAAAAAAAAAAAAAAAAAAAAAAAAAAAAAAAAAAAAAAAAAAAAAAAAAAAAAAAAAAAAAAAAAAAAAAAAAAAAAAAAAAAAAAAAAAAAAAAAAAAAAAAAAAAAAAAAAAAAAAAAAAAAAAAAAAAAAAAAAAAAAAAAAAAAAAAAAAAAAAAAAAAAAAAAAAAAAAAAAAAAAAAAAAAAAAAAAAAAAAAAAAB6UgwB4RuoowpQLQBBwGyAXvoQwQBSwAG6gQIAAABUOAABggAwgAcIyQAAAAAAAAAAAAEa1xgR6R8g4AzAPTUkgK6kIIwACLTAkywAIQKAAAOoQA4EIAAIAKAAggAAAAAAAAAAAAAa11q0AUkli07AL2jHACIgAQQAArKwCQAAAAIwAAaQAAiUSwFSAOgAKgAAAAAAAAAAAAASR1EE6FugAA6gOQAQAPAgFaQAAEgAArAACACQAABSgDQQRAEIACADKAAAAAAAAAAAAAEwUswAg0kQAEoQAwAMQIYAEQQAAIwAAMbMoAIZAgA5uUwAEy+wAMlYwAAAAAAAAAAAAAAAAAAAAAAAAAAAAAAAAAAAAAAAAAAAAAAAAAAAAAAAAAAAAAAAAAAAAAAAAAAAAAAAAAAAAAAAAAAAAAAAAAAAAAAAAAAAAAAAAAAAAAAAAAAAAAAAAAAAAAAAAAAAAAAAAAAAAAAAAAAAAAAAAAAAAAAAAAAAAAAAAAAAAAAAAAAAAAAAAAAAAAAAAAAAAAAAAAAAAAAAAAAAAAAAAAAAAAAAAAAAAAAAAAAAAAAAAAAAAAAAAAAAAAAAAAAAAAAAAAAAAAAAAAAAAAAAAAAAAAAAAAAAAAAAAAAAAAAAAAAAAAAAAAAAAAAAAAAAAAAAAAAAAAAAAAAAAAAAAAAAAAAAAAAAAAAAAAAAAAAAAAAAAAAAAAAAAAAAAAAAAAAAAAAAAAAAAAAAAAAAAAAAAAAAAAAAAAAAAAAAAAAAAAAAAAAAAAAAAAAAAAAAAAAAAAAAAAAAAAAAAAAAAAAAAAAAAAAAAAAAAAAAAAAAAAAAAAAAAAAAAAAAAAAAAAAAAAAAAAAAAAAAAAAAAAAAAAAAAAAAAAAAAAAAAAAAAAAAAAAAAAAAAAAAAAAAAAAAAAAAAAAAAAAAAAAAAAAAAAAAAAAAAAAAAAAAAAAAAAAAAAAAAAAAAAAAAAAAAAAAAAAAAAAAAAAAAAAAAAAAAAAAAAAAAAAAAAAAAAAAAAAAAAAAAAAAAAAAAAAAAAAAAAAAAAAAAAAAAAAAAAAAAAAAAAAAAAAAAAAAAAAAAAAAAAAAAAAAAAAAAAAAAAAAAAAAAAAAAAAAAAAAAAAAAAAAAAAAAAAAAAAAAAAAAAAAAAAAAAAAAAAAAAAAAAAAAAAAAAAAAAAAAAAAAAAAAAAAAAAAAAAAAAAAAAAAAAAAAAAAAAAAAAAAAAAAAAAAAAAAAAAAAAAAAAAAAAAAAAAAAAAAAAAAAAAAAAAAAAAAAAAAAAAAAAAAAAAAAAAAAAAAAAAAAAAAAAAAAAAAAAAAAAAAAAAAAAAAAAAAAAAAAAAAAAAAAAAAAAAAAAAAAAAAAAAAAAAAAAAAAAAAAAAAAAAAAAAAAAAAAAAAAAAAAAAAAAAAAAAAAAAAAAAAAAAAAAAAAAAAAAAAAAAAAAAAAAAAAAAAAAAAAAAAAAAAAAAAAAAAAAAAAAAAAAAAAAAAAAAAAAAAAAAAAAAAAAAAAAAAAAAAAAAAAAAAAAAAAAAAAAAAAAAAAAAAAAAAAAAAAAAAAAAAAAAAAAAAAAAAAAAAAAAAAAAAAAAAAAAAAAAAAAAAAAAAAAAAAAAAAAAAAAAAAAAAAAAAAAAAAAAAAAAAAAAAAAAAAAAAAAAAAAAAAAAAAAAAAAAAAAAAAAAAAAAAAAAAAAAAAAAAAAAAAAAAAAAAAAAAAAAAAAAAAAAAAAAAAAAAAAAAAAAAAAAAAAAAAAAAAAAAAAAAAAAAAAAAAAAAAAAAAAAAAAAAAAAAAAAAAAAAAAAAAAAAAAAAAAAAAAAAAAAAAAAAAAAAAAAAAAAAAAAAAAAAAAAAAAAAAAAAAAAAAAAAAAAAAAAAAAAAAAAAAAAAAAAP/EAAL/2gAMAwEAAgADAAAAEPPPPPPPPPPPPPPPPPPPPPPPPPPPPPPPPPPPPPPPPPPPPPPPPPPPPPPPPPPPPPPPPPPPPPPPPPPPPPPPPPPPPPPPPPPPPPPPPPPPPPPPPPPPPPPPPPPPPPPPPPPPPPPPPPPPPPPPPPPPPPPPPPPPPPPPPPPPPPPPPPPPPPPPPPPPPPPPPPPPPPPPPPPPPPPPPPPPPPPPPPPPPPPPPPPPPPPPPPPPPPPPPPPPPPPPPPPPPPPPPPPPPPPPPPPPPPPPPPPPPPPPPPPPPPPPPPPPPPPPPPPPPPPPPPPPPPPPPPPPPPPPPPPPPPPPPPPPPPPPPPPPPPPPPPPPPPPPPPPPPPPPPPPPPPPPPPPPPPPPPPPPPPPPPPPPPPPPPPPPPPPPPPPPPPPPPPPPPPPPPPPPPPPPPPPPPPPPPPPPPPPPPPPPPPPPPPPPPPPPPPPPPPPPPPPPPPPPPPPPPPPPPPPPPPPPPPPPPPPPPPPPPPPPPPPPPPPPPPPPPPPPPPPPPPPPPPPPPPPPPPPPPPPPPPPPPPPPPPPPPPPPPPPPPPPPPPPPPPPPPPPPPPPPPPPPPPPPPPPPPPPPPPPPPPPPPPPPPPPPPPPPPPPPPPPPPPPPPPPPPPPPPPPPPPPPPPPPPPPPPPPPPPPPPPPPPPPPPPPPPPPPPPPPPPPPPPPPPPPPPPPPPPPPPPPPPPPPPPPPPPPPPPPPPPPPPPPPPPPPPPPPPPPPPPPPPPPPPPPPPPPPPPPPPPPPPPPPPPPPPPPPPPPPPPPPPPPPPPPPPPPPPPPPPPPPPPPPPPPPPPPPPPPPPPPPPPPPPPPPPPPPPPPPPPPPPPPPPPPPPPPPPPPPPPPPPPPPPPPPPPPPPPPPPPPPPPPPPPPPPPPPPPPPPPPPPPPPPPPPPPPPPPPPPPPPPPPPPPPPPPPPPPPPPPPPPPPPPPPPPPPPPPPPPPPPPPPPPPPPPPPPPPPPPPPPPPPPPPPPPPPPPPPPPPPPPPPPPPPPPPPPPPPPPPPPPPPPPPPPPPPPPPPPPPPPPPPPPPPPPPPPPPPPPPPPPPPPPPPPPPPPPPPPPPPPPPPPPPPPPPPPPPPPPPPPPPPPPPPPPPPPPPPPPPPPPPPPPPPPPPPPPPPPPPPPPPPPPPPPPPPPPPPPPPPPPPPPPPPPPPPPPPPPPPPPPPPPPPPPPPPPPPPPPPPPPPPPPPPPPPPPPPPPPPPPPPPPPPPPPPPPPPPPPPPPPPPPPPPPPPPPPPPPPPPPPPPPPPPPPPPPPPPPPPPPPPPPPPPPPPPPPPPPPPPPPPPPPPPPPPPPPPPPPPPPPPPPPPPPPPPPPPPPPPPPPPPPPPPPPPPPPPPPPPPPPPPPPPPPPPPPPPPPPPPPPPPPPPPPPPPPPPPPPPPPPPPPPPPPPPPPPPPPPPPPPPPPPPPPPPPPPPPPPPPPPPPPPPPPPPPPPPPPPPPPPPPPPPPPPPPPPPPPPPPPPPPPPPPPPPPPPPPPPPPPPPPPPPPPPPPPPPPPPPPPPPPPPPPPPPPPPPPPPPPPPPPPPPPPPPPPPPPPPPPPPPPPPPPPPPPPPPPPPPPPPPPPPPPPPPPPPPPPPPPPPe++PPPPPPOt8fMvfPPPPPPPPPPPPPPPPPPPPPPPPPPPPPPPPPPPPPPPPPPPPPPPPPOBXK+RUqnPO4miSfYhtvPPPPPPPPPPPPPPPPPPPPPPPPPPPPPPPPPPPPPPPPPPPPPPPOkkFE+DjBLv27QfSxcADmvPPPPPPPPPPPPPPPPPPPPPPPPPPPPPPPPPPPPPPPPPPPPPPAH4A3fL63vwbfRPXPH8Y0/vPPPPPPPPPPPPPPPPPPPPPPPPPPPPPPPPPPPPPPPPPPPPOjitPPPPPP8AO1o3zzzzywjWfzzzzzzzzzzzzzzzzzzzzzzzzzzzzzzzzzzzzzzzzzzzzzJmd/zzzzzECfTD/wA8888o7/U888888888888888888888888888888888888888888883qK88888ruIeoE988888tLH988888888888888888888888888888888888888888888TH2888885Ly4dXp88888pNs888888888888888888888888888888888888888888888/Kc088888ddM3G288888hQv8AvPPPPPPPPPPPPPPPPPPPPPPPPPPPPPPPPPPPPPPPPPPPP1ThvPPPPOXzGrfPPPPOagXfPPPPPPPPPPPPPPPPPPPPPPPPPPPPPPPPPPPPPPPPPPPPPIPvc8998/HxPu/tPe+Us03PPPPPPPPPPPPPPPPPPPPPPPPPPPPPPPPPPPPPPPPPPPPPPPzNDduiR5Wp/Iy5e+g8RHPPPPPPPPPPPPPPPPPPPPPPPPPPPPPPPPPPPPPPPPPPPPPPPPPPbp4ZeuDfPDiySUXH3PPPPPPPPPPPPPPPPPPPPPPPPPPPPPPPPPPPPPPPPPPPPPPPPPPPPHrLvvPPPPPLLXPPPPPPPPPPPPPPPPPPPPPPPPPPPPPPPPPPPPPPPPPPPPPPPPPPPPPPPPPPPPPPPPPPPPPPPPPPPPPPPPPPPPPPPPPPPPPPPPPPPPPPPPPPPPPPPPPPPPPPPPPPPPPPPPPPPPPPPPPPPPPPPPPPPPPPPPPPPPPPPPPPPPPPPPPPPPPPPPPPPPPPPPPPPPPPPPPPPPPPPPPPPPPPPPPPPPPPPPPPPPPPPPPPPPPPPPPPPPPPKfavfL9eiw4vlPG/Pt/JvkGfVn9/M3eIF2N/HvPPPrkfPKNPO9fGtO/vPPPPPPPPPPPPO4PytaFqXT/KT/H3qG/PfrkdHPgU0vMv/PH/AB/zzzz7x5yr3yr/AMW89u8888888888888rA7yJRWoC51t+8xPbZ86+8oU88oIn8q0888ol88/o88/8638v18Y88f8APPPPPPPPPPPPP6uw7I16C/PLefJbAF/ItvJPfPPFvPKUfPtvNfPPFt+K/b+fI9PO/N3fPPPPPPPPPPPPPfbrvPN/PfPKgPDPPCfAlvC3/PPPPPPHpT3vF7gvLmlffPHxRHPAY3fPPPPPPPPPPPPPPPPPPPPPPPPPPPPPPPPPPPPPPPPPPPPPPPPPPPPPPPPPPPPPPPPPPPPPPPPPPPPPPPPPPPPPPPPPPPPPPPPPPPPPPPPPPPPPPPPPPPPPPPPPPPPPPPPPPPPPPPPPPPPPPPPPPPPPPPPPPPPPPPPPPPPPPPPPPPPPPPPPPPPPPPPPPPPPPPPPPPPPPPPPPPPPPPPPPPPPPPPPPPPPPPPPPPPPPPPPPPPPPPPPPPPPPPPPPPPPPPPPPPPPPPPPPPPPPPPPPPPPPPPPPPPPPPPPPPPPPPPPPPPPPPPPPPPPPPPPPPPPPPPPPPPPPPPPPPPPPPPPPPPPPPPPPPPPPPPPPPPPPPPPPPPPPPPPPPPPPPPPPPPPPPPPPPPPPPPPPPPPPPPPPPPPPPPPPPPPPPPPPPPPPPPPPPPPPPPPPPPPPPPPPPPPPPPPPPPPPPPPPPPPPPPPPPPPPPPPPPPPPPPPPPPPPPPPPPPPPPPPPPPPPPPPPPPPPPPPPPPPPPPPPPPPPPPPPPPPPPPPPPPPPPPPPPPPPPPPPPPPPPPPPPPPPPPPPPPPPPPPPPPPPPPPPPPPPPPPPPPPPPPPPPPPPPPPPPPPPPPPPPPPPPPPPPPPPPPPPPPPPPPPPPPPPPPPPPPPPPPPPPPPPPPPPPPPPPPPPPPPPPPPPPPPPPPPPPPPPPPPPPPPPPPPPPPPPPPPPPPPPPPPPPPPPPPPPPPPPPPPPPPPPPPPPPPPPPPPPPPPPPPPPPPPPPPPPPPPPPPPPPPPPPPPPPPPPPPPPPPPPPPPPPPPPPPPPPPPPPPPPPPPPPPPPPPPPPPPPPPPPPPPPPPPPPPPPPPPPPPPPPPPPPPPPPPPPPPPPPPPPPPPPPPPPPPPPPPPPPPPPPPPPPPPPPPPPPPPPPPPPPPPPPPPPPPPPPPPPPPPPPPPPPPPPPPPPPPPPPPPPPPPPPPPPPPPPPPPPPPPPPPPPPPPPPPPPPPPPPPPPPPPPPPPPPPPPPPPPPPPPPPPPPPPPPPPPPPPPPPPPPPPPPPPPPPPPPPPPPPPPPPPPPPPPPPPPPPPPPPPPPPPPPPPPPPPPPPPPPPPPPPPPPPPPPPPPPPPPPPPPPPPPPPPPPPPPPPPPPPPPPPPPPPPPPPPPPPPPPPPPPPPPPPPPPPPPPPPPPPPPPPPPPPPPPPPPPPPPPPPPPPPPPPPPPPPPPPPPPPPPPPPPPPPPPPPPPPPPPPPPPPPPPPPPPPPPPPPPPPPPPPPPPPPPPPPPPPPPPPPPPPPPPPPPPPPPPPPPPPPPPPPPPPPPPPPPPPPPPPPPPPPPPPPPPPPPPPPPPPPPPPPPPPPPPPPPPPPPPPPPPPPPPPPPPPPPPPPPPPPPPPPPPPPPPPPPPPPPPPPPPPPPPPPPPPPPPPPPPPPPPPPPPPPPPPPPPPPPPPPPPPPPPPPPPPPPPPPPPPPPPPPPPPPPPPPPPPPPPPPPPPPPPPPPPPPPPPPPPPPPPPPPPPPPPPPPPPPPPPPPPPPPPPPPPPPPPPPPPPPPPPPPPPPPPPPPPPPPPPPPPPPPPPPPPPPPP/EAD8RAAIBAwAGBgYHBwUBAAAAAAECAwAEEQUQEiExURMiM0FxciAyNGGBsRRQUlORocEGFSMwQoKSJENic6Bw/9oACAECAQE/AP8A0bqjucKpJpNH3LcVC+Jr93P3yx/jX7um/pdD8aktbiP1ozjn6QBJwBSWVy/CMjx3UNF3HeyD40dF3HcUPxqSzuY+MZ+G/wCtFVmYKoJJqDRqoA05/sFPMsQ2Y1VB7qJmlO4E0LK4PcBQsZh3ikiuY/6qeyinB202G5irqyltjlt6ngw1AEkACrfRbEBpjsj7PfWba2Xqqq+/vp9IknCKTW3fvwQigukB3NST3aeun5Uy29yOumDzFXVhJD1l6ycx9YxxvI6ooyTVrZparzkPE07s77KbzzqOyQdZ95rZVR3AUZrcf7yfjSMj+q6nwNBM0V2QSxwBWkL36Q+yvZqd3vqGCWeQJGuSatrKK1GdzSd7cvCrm9JbYiG03OodGvIdudz4UkEMQwqAUZIl4uo+NI0beq6nwNbFPbRtwGDWy8ZwRkVf2AUGaEdX+peX1ho61EEQlYddxu9wqQscIvE1FCkSe/vNXelQpKQYPNqkmlkOXcnUCQcgkVb6UuIiA5219/Gr/SbXCiNMhO/mahhknkWNBkmre2jtIthPWI671J0ty3Rxbl72qG1gtU9/exq60qiZWIbR591S3VxL60h8BuGu30hdQEbLkr9k7xVnfw3QwOq/etFAwwa2NhiDvHeK0hafRp93qNvX6u0fb9PdIp9UdZvAUx2pKVACT31pW+OTbxnzn9PSALEADJNaPsltId/aMOseXup1aZ+jXh3mmMNrCSSAAKvtIyXLEKSqcufpI7xuGUkEHca0beLdRAnc43MKljyM8q0jb9NZv9pOsPq7Qy4juJPBRUe9z4VcS9DBJJyG6mJYkk5JPpaEsc/6lx5B+tOCdw4mmMdvESe7iav757qQ4JCDgKhtbifPRRM1SwSwtsyIVPv9LRk5hu037m6ppRtKKK4ZlqZNiWROTEfVuixiwc85TUPrnwrTDYtQObj0oI+lmjj+0wFIioiqowAABW5cmtMX5lcwoeqDvqwsmu5wvBRvY1a20ccaqqgKOAr9oLeM2hbAyN49JSQykdxq160KmpVw5rSAxez+b6t0SQbGUd4k+YqP1xWmUJtQeTD0raURXEUh4KwNRypIisrAgjINaV0ikERjRv4hqNHlkCqMsxrRlitvCqDid7HmaVQBX7RXqlRCp3n5ekoLMoHeas0xAtTLgk1fttXk5/5fVuhJBtzQ/bXI8RW8GpYRc2zp9padGR2Rhgg4PpJNKgwkjL4HFAO7Ab2YmtE6KEC7cnaH8qjQAVpS/S0gO/fippnmlaRzvJ9LRkBmuk3bl3moIisSj3VfMI0cmpH25HbmSfq21na3njlH9JqUK2zIhyrjIqCTZODwNaY0aZQbiEdYDrDn6UEEs8gSJCzGtHaKjtBtyYaXn3L4VGz3EnRxeqPWarm4itICSRuG6tIXz3c5Ynqg7vSRGdgqjJNaD0WIYwzD3k8zQFftFegK0ane276v0PeKy/RZT/1n9KdCjEGobjA2X4c6vdEQXGZIyFY944GptFXsX+3tDmu+jBOOMT/gajsbyQ9WB/wxVroB2INxIFH2V3mlNlYx7ESgeHE+JqGO5vm+xFUk1tYQYGBgbhWlNJyXkhAPVqGJ5XCLUFho+S1Fu67LjeJO/NXehLyDJVekTmtMjqcMpHiKCsTgAmrbRV7ORiMqvNq0ZoKK3w77zS4AwBgVpC+S2hbLYOKvLlrmdnPDuH1eCQQRVhpSO4VYbk4fgr86kt5F3jrDmKWR0O40Lo965r6Sn2TRuj3LQNxNuGcVDYxg7Upz7u6rrScNtGdkjdV9pGW6c5J2dVlFGkQKEHPE0KhlmXcCaUdJ68amoreIcIwKVFHAar3ScVuhwwz8q0hpCS7c7zs/P6ystM3NthWO2nI8RUekbC5AzgNyO410Ns28GhBb/aoC1TlUukbeIesKutNs4IjqSWSU5ds64LiWBsofEVbaTgbAk6p/Kobi3bGGFRzW/wB4K+lWyjfKtS6WtoxuOavf2hJyqH8KnuZZzl2+H1qk8yerIw+NfTbr71qa6uG4ytRJPE+mGZeBIoXVwOErUbu5PGVqZ3b1mJ/+3QQ9NJs5xuq5g6FlG1nIqJNuRVzjJxU0Lwtst8Dqt4emk2c43VcQdCwG1nIqNNt1XmcV+7B97+VfusfeH8KubIQx7e3nfUabbqvM1cWnQoG2s78apLZ0jSQb1IBPu1AZIFT2XRRF9vOqCy6WIPt4zTDDEcjUFj0savt4zX7tH3h/Cv3YPvD+FXNoIUDB878VbxJK+yWwTwq5s2hUMDkd+q2tmnYgHAHE1dW6QMFD5OqO0VVLS93EZwB4n9KE1km7YQ/2E/M0sdncZCjZb/jn5GpomifZJB3ZBHeNVxCsWzjPEg+hFE8rbKjxNC2tIh/FfJ/D8hWNHPuBx794+dT2bRjaU7S6kXadV5kCruFYpAFzgjVGu06rzIFXUKROAucEahbWMcMbSnewHPvGe6tjRTcHx8TT6NRl2oJc+4kH8xTKVJBGCOI/naP9o/tNaS9ePwq29oi8wqWFJUKsKuLd4WweHca0f258prSPaJ5at+3j8wq/kdIQVYg7VfSbj71vxp5pXGGckVb9vH5hWkexXzarcA28YP2BV3ZGPLoOr3jlS+svjV97M3w1WPsy/GpO0fzGlnmUYWRgK0fLI5k23Jxir2eVZyFcgYFPLI/rOTQJBBFW8qXMJDccYYVJbOs/RgZyd1ZjtLfw/M07s7lmO81aL1i/eMBfE99TzGRsAnZHAfrqBIpmZiSxJPM6r/u87fIegx+i2ygeu1EkkknJ1WM+JBE29W3D3GrqHoZmXu4ioO2i84rSPaJ4H56oO2i84rSPar4H56r4/wAC38B8tUM8kLhkPiO41pBEkijuEHHAP87R/tH9prSXaR+FW3tEXmFXszxIjIf6qjkhuoiCPEVBatDdc1KnBrSXap5at+3j8wqRYmX+JjHvox2XKOrgIJnCY2at+3j8wrSPYr5tUZItFI+7/SrS9EgEcnrdx51c2RDh4xuzvFX3srfDVY+zr4mpO0fzHVozjJ8Kv/aG8BrgmaGQMPiKVkcBxy3GruczSbvVHDVb9mee181PpXh4edvkNY4itJjDR8t+uPPSJjjtCtK46ZOeD86h7aLzitIdqvgfmdUHbRecVpHtV8D8zqvOwt/KPlrJxosA/D/L+dYe0DymtJdonhVt28XmFaSOYk81RyPGwZTg1bXKTLyYcRWkjmVPCrft4/MK0j2A82u37ePzCtI9ivm1KcWi/wDXqs7zaxHId/cav/Zn+Gqx9nXxNS9o/mOrRnGT4Vfe0HwHoW5/0qeXXA+y2CcA/kamiIYso3d45alVmOAMmiCDg6rrgPO3yHoJs3lts5AkQfLvqSN42KupB1WNoykTS9VV3jPzq6m6aZnHDgPAUpIII7jV5H00Mc0e/ifgd/5HVYwPJOjY6qEEmr5w1wwBzjdqu+wt/KPlqihaQ8l7zV5MuykS7gv86CXopNrGauJ+mYHZxgVG+w6tyNXF2ZlC7GMHOpHZGDKcEVPP0xUkYIG+kbYdW5Gp7wzJs7GN+daNsOrcjVxdmZAuxjfnULz+EE2OC4znWbt2tzE+/kdUF4YowuxmmO0xPM6ra46Et1c5qaXpZC2Megl6UjVNjgPQSZlwOIFdLGeI/IV0wAwB+g/KmYscnV9KX7PwIB+Yr6Un3Y/xWmuFII6Nf8RqR3jYMjEEUukQQBLEGoX0CnKQAHygVPeTT7icLyGu2vJbfIG9TxU0b20be1vv8Aak0ixTYiUINYvBsorRg7IxRuY87oh+Ap7p24AD/wBEn//EAD4RAAIBAgMFBAYIBQQDAAAAAAECAwAEBRExBhASIVETICJBMlBSYXGxFDNCYnKRocEjMHOBgiSgstEWQ3D/2gAIAQMBAT8A/wBxvLPDCvFLIqL1Y5VNtRg8ZIExkP3FJr/yq1Po2lyf8RQ2sw/PKSKdPitWuNYZdZCK6Qsfsnkf17zMqAlmAA8zVztHg1uSHvEJ6L4vlTbaYUPRSZv8aTbTCSfEsy/Fatcfwi5IEd2gPRvCf1oEEZg5j1nLLHDG0kjhVUZknkBWJ7YO7NDhye4zN+wqC1nv5O0uJZJj1Y8qAwyxX+JJGp6Cm2iwpOS8R+AqXaWwYZdk/wCQq4xDCrjWLhPUDI/pVltJfYfIohuTND5xyVg+PWeKLkmaSgZtGdzMqqWYgAak1i+2VvblorJRK/tn0RXHjWNS+J5JPcOSirbY9EQPdzqnUCvouy1rykuFY/ip5tkm5Ap+tT4fgk2Zt5wD7mq3vMVwp/8AT3BeP2G5isH2ktMQyjf+FP7B0Pw9Y3FxDbQvNK4VEGZNY5tBPikpVc0gU+FOvvNW1vHDEJrg5J5LVxjd1IOytx2aaDLU1bYJid2eIxnn5tSbIX2QJb9DU2zF7HoQaucOuLc5SRkVDbO7qqqSxOQArZzAlw2DtJBncSDxfdHSrq7gtIWmmcKorHtpLnEGMUWaQ58kGp+NYRs2Gj+lYgwji1CnkTV3tNBaobfDIFVRy46eLG8TbiPasD1OQpdkcTfmStTbJYlGMwVNXOHX9rzkiYDqKjvrhMgWLL0NC5ViHUkEfmK2a2i+lBbW6f8Aij0H9r1htfjhurk2cLfwoz4vvNVoIxnNIfAmg6mkW7xW5CIOXl0ArBtl7a0RXlXN6SKNBkqgbiAdRV1hlrcKQUArDdnrOynacKC/2ei1c3MNrA80rZKorHccmxG45EhByRKw2C1sFF1dgNJ9iOmkxPHJwozEYOn2RWF7LWtuFeUcb9TUcEUYyVAN89lbzqQ8YrHdlFXilgAB92hponjcqwII1FQTPFIrAkEHMGsCxMYjYq7fWLyf1djt99BwyeUHJyOFPiadiQ7nUmkWWYxwr5nICtm8FjsrZHYZue8zKqlmOQAzJraPG3vpjHGSIUPL3++rWAR/xWGZ+yKw/Cp8SnDNnwZ8zVjh8FnEqRoBl3mVWUqwzBranAwmdxEPj7xRj5VshfGG7ERPJ+R9XbdT5QW0IOpLGpOUS/GtkbAXN4ZGHJKAAAA0He2pxQxxm0iPM+mf2qKIvJzqww97uZUA8I1qys4rWFURQMhUk0UfpuBSOjjNWBHevoFntpFIz5VdWhhuJY+jcqw4mK+jy61C/HFG3VQfVu3Tf6qAfcFOc4V9zVsPEBbu/UnvTydlDJJ7Kk1dI88rO5JJJJqK1OYUDmTWE4elrCCR4jV3dJbQs7Gri/nvJmbjITPlWz08hZkZiR3iMwRWMQgXjnqBSpw3sX4xVjztIfw+rdu4z2sD/cpefhrYqQCF4+hPenj7WGRPaUipbVkcgqQRWGYcWkEjr4RTMqKSeQFY5iRurgwIfCPSqNcgAKwSzMUXGw5nn3icgaxXxXZ9wFJDx30I+8KtF4baIfd9W7Y2hmsUkA9AkH+9aGtmb8W92oOjUrBlDA8iO80aN6Sg/EVyUdAKxzGOEGGE8zUMRGZOprB8PM8gkceEaUqhVAHeuZAkTGrpjJM79TWGWxkveLL0RSjhVR0Hq27t1ubaWFtGWsVsXtLuRWGQzNQSGNhl1zBrZ7GkmhEUjZEd6SRI1LOwArFtoFzMMB51GjSsXfnnVjYNcSAAeHzNW8CQRhFHeJAGZrFLzizRDRSsGs+zXjYczzPq/abBVuojOg5/a/7qSCSFyjjI1a3EsDhkYgisK2nQhY5zkaivraUAhxQkQ/aFNPCurir7H7O1U+MZ1eYzeYgxEZKp1q3s1QZtzNWdjJO4CjJRqatbWO3jCqKJAFTvdxzdrGeJfNKgv4JdTwt0NAg6GsxUlzDGObCrrEmkzWOuGrS0MsgJHhBqKMIgA9XkAgg1i+z8cgZ0TNeg1WrnCJ4szGONf1pldTkQQaiu7uH6uZloY5iYGXb1JiWIzcnuXy91W1lPM2YRj7zVth3Z5FuZ6Va4W8pBcZLUMEcKhVGW6RiTRNSJE2q0ck9FjTSP7dPm2pJoJVvZNKQWGQqGFYlAA9ZXOGwTEsBwt1FXGChs+0iDe+n2etCfq2HwNDZ20z+rc1DgkEZ8FsKiw1z5BRUFhFHzy50ABpvZQ2tPC3lUkEtPFN7BrsJj9g0ljM2uQqGwROZ5mlULp61KIdVFdlH7IoIo8v5PCvSuFelZD/7caBz3A7iaBz3cVcdBszuDZ7s9+fPcWy3E1x1x+6g2dGgdxOVA57pLliQIxrocsyfgKMN2/wD7HH+QHyFM93BzY8S/e/7FQzLKnEvXIjod1rcPMXzyyABGXvJH7dy7vILSIySn4Aak9BTYtjF6SLKDJeoAP5seVCTaiHxsnaDzXwH5ZVh2NxXbdlKnZTeydCd0z9nFI/sqT+VYVeS3cDNJw8QbLl7wDunkMcMrj7KE/kKwu8luoWaQLmGA5e8Z7je4nLPKkCAhWI8tAcvOu2xtdYc/7Kfkaixd1fguYSp6gEEf2NKysoZSCCORH846UtHSs6BzptKXSjS1kNx0NLruOtBtw13PrvYClAy3nlQPKtTunPh4eutRxhRn5nXeqqoAUADoN2HrkW/pp8z3FiOK4nKZM+wi5AdQP+6REjUIihVAyAG7GsOWWI3MQymj55jVgKwy6N1ZxyN6Y8L/ABFXnO0uP6TfKtnl4bef+oP+I3XYztbgdY2+VbPqVt5s/bHyG7DlyuLk/eb/AJbp7eKdOF1+B8waw4vDLJbMeQzK/wA46UtHSlFEEGuLMUum4VzoaUdDSa7jrRWgaGu5td7UundAy3S6j4fv3rRcifwL++9vRPwrAxwpMPPMb5MuzfPThNYIvDFPlp2n7VcfUTfgb5VhAAgcfeH/ABG6f6iX8BrDABE/4h8hutFymn/Efnv4c8RzHlr+X846UtHSl1ojOiuVJpuXXedDSbjruIoa7m13tS6dw673XMUjeR7sGrfhH79xleyujIBnG9RyJIoZGzG6+ugwMEXiZuRyq0gEECp56n4mmAYEHzFWLdjLJC/LQf3HLdeTLHCwz8TAgCrFCkAzGRPPdbjKWb47ncIOp8hVvEQzSNq3840BluC5bwMtwGR7gXLcVzPdK57yM6AyHcK9wqDWRrhO/sG9r5iuxb2v1NCFgfSP5nc6K6lWAINNY5HOKQrX0OZhk8xI+JqC1ih5gZt1O+e2jmyJ5MPMV9GuhyE3L4kUlkOLikbiPTf2ORJB1NdmfapYgP8AcSf/xABLEAABAwECCQgHBQcBBwUAAAABAAIDBAUREBITITEyNFFxFCAiMEFhcpEGM0JSU2CBFWJzobEWIyQ1QEOCVURUY3SSwNFFkKLh8f/aAAgBAQABPwL/ALkAdURN7U6u91q5VMdCylQd6xqjeVlJxvXKZgm1m9qZURu7esL2t0lOq2DQjVu7AjUSlZWbestLvXKZQm1h7WptVGUCD80S1jW5m5ynSzS9qbBvTY2jsQHdzPoixh7EYdxQklj7VHVNOZ2bqJJ2M7U+qedXMrnHSsQIM7kIXLId6yI3rIDejAUY3DsQc9mgqOr99BwdoPzJLMyMZ1JO+XN2JsW9AbkGq8BGZqy53LLOWVfvWUfvWUcsoUX92COd8fBRyCRt45jnBovJUtW52ZixSdKATYnFCNoV7QjOzeuUt3LlI3LlA3LLsWO09qIBTo9ya98ZzKGpa/N2/MU9Q2Md6ONI68oABNber2tTpj2K+/qmNL3XBRsDG3YZ6hsQ70575TeUBcmRlybG1qfOxqdO89yvv54kcEJAUQCi0tzhU9Tf0XafmCeYRN71nebzgYzenyYuYIm9EgaU+sjbozo1dQ/UYsnaL/ZcuTWj7r0W2gzSHoVszdZqZWxu05ljAq9C9xuCghEbe/DUVQjzN0oAvOM7BHD2lOeyMKSdzu4YH1ETNLk60fcYuUVj9Vh8liWkfZcsW0R7L1ymqZrN/JMrx7TUyVj9BwtfvwPbdnCpKnH6LtPy9JII2klOcZX4xwMbfnT5LswwTVLY8wzlRUtXVm85mqCyaePWGMU2ONuhoHMkp4ZNaMFVFixOzxHF7lJFVUjukP8AwoakSENu6SpafJi86cNVVYnRbpTW353YIo7s5UtSG5m6UXEm8qWpji06dyx6uqddG03KCw+2Z/0UVBSxaIwgANAwljTpaFNZtLL7Fx7lUWTPD0ojjBR1bmnFkQcCLxga67A8FjsYKmmEsff2/LtVLlJMUaAgFpKc7FFwwTzm/Ej0qissN/eTZzu6l8bHtxXC8KCzqeGUvA4d2GrqskMUayaL87sDGhucqWoJzN0IkDSpatzjiRKjsdz+nP5KOKOJtzG3dTW2dFUC8Zn71++pJcR4TXhwvGBjuxHOFBKYJhu+XKqXJxFRjtRQN2Comu6DdJVn0OTGUfrdbU1AhZ39iF73Y7sDAGi8qSbGzDQnPawXkoZetkxGDMqKzYaYX6Xb+srKSOpjuOnsK/eUsxY9X34Abwphe29WdNlIbjpb8t1r8eUN3IBO04JXhjCVZlMZZDM/R1ssjYmFxUkjpn4xwMHaVLLjHuT3hgvKhimrprhqqmpY6ePFaOutOjE8WMB0mqlk9g4GnPgopMlVYvYflsHHmc5BO0nBUEyzNiCgiEUTWDs62sqMrJit1RgYLypZb8w0IuDReVFFLWzYo0Knp46eMNaP6C0oeT1eM3Qc6BvAOGfoyMcon40bXbx8s1DsWF57lBoKCOkom4EqyY8rVF57OttCpybMRulyagpH4oxR9VerpKmYRsVHSMpog0ae04JZooW4z3XBPtyIHoxkqC2KeQ3O6PW2zFjU2P7pVM69l27Aw5lVaisx+NSM7vlmvP8ADOUGogjpKqTdC5WIy6Bzt56x7gxhcewKWUyyueVese7BK86o0lWZQcnjxna7sE87IIy93YpJJa2UuceihHG3sUsLXDMM6sSqc9jonaW6Osq2Y9PK37qpj0nDAxVHqirFd+4cNx+WbR2f6qDUCCdrFVnqfqrI2NvHrLUfiUp7zcgr1enOuCsijx35d+gaMBzKuqXVc+I3UCuDGgDDYx/jn8OsdqlReud9cDFN6tysPUl4/LNo7OVT+rwP0qs9SVZB/g28estcHkoO5yvV6vUELqmdsY0dqjjbGxrG6BgtetxRkGHOdKgiybbzpKJwSvxWEqwYT+8lPAdY/VPBReuP1wMU5/dOVherl4/LNa3GppOCpT0TgepxjRPHcrDkvikZuPWTxCWJ7D2hTwyQSFjwr1HHLM/EjaqGiZSx/eOk4LQrW00ebWOhQML3GV6ccJxqidsbN6pYGwQsjHZ1lY/J00rvuqn1icDFVH90rDb/AAzjvd8svF7SO5QdGVzcBzjBZ0mQrcU6HZutlhilFz2Ar7LovhqOGKIXMYBgqqllNEXO+gV8lXMZH6OZUS3dEaVY9DkmZZ46TtHDrbcnxacR+8VAOjgYqx2doVmR4lHF5/LVW3JVRP1QwPFxVS0gtkHYqOoE8DXdvb19RURwRl7yppZa2a86o/JBoaLgjglkxGqyqI1EuVfqA+Z660qjlNWbtAzBNFwAwNWeaqDRvuTG4rWt3D5atSHGjEg9lU772XbsDheE4XggqjqDST3HVOlAgi8dbU1UVMy9x+illmrpbzmb+iawMFwWKA3GdoTnXm9OcALyqeCStqMUaO3uChiZDG1jBmHW2tW5GLJtPTd+iib7WF78SMlWJBlKgyHQ35bc0OaWntRBp5y0oYJGdoUseUHeqCvMByUur+iBBF46uttSOG9rOk9XTVL8pK4prQBcAgwAYzlPPlD3Im5fvKmVsbAqGjZSRBo09p62urY6WO863YE50lRK57zpQwzOx3BoVm0vJ6Zo9o5z8uWlTZRmO3SFTTewcL4+0KWIScVTVs9I7FdnbuVPVwzi9rvp1FRWwQDpP+iqbTnqDiRDFCipgM786ZGXK5kQvJU9QZD91XpznzPDGBWbZzaSO93rDpw19qYzzFC7RpKorV9if/qQIIvB6ittWGAFrek9SPlqZMd7lozDDI/FCsejysuVdqt/X5etCkML8duqVBOHZjpwvjv0J7L8zgjTvacaNyitWrhzPGNxUdtU512lqbaVGf7oXLqT4zfNOtSjb/dCltyIajCVLaVbPmb0R3JtK9xvkKjgu1QmwjtU08cI79ylmfKbyibkS+Z4YwKzLNbTNx355D+WG17Txb4Ijn9o4Gy+95qnrZ4NR+bcoLZhd6wYqjqqd+rI1Yw3q8b06ohZrSNCmtmlZqnGPcqm1KmfM3ot7kGb+Y5wAvUEMlXOGt//ABQQMgibG3QPl57GvaWuGZVlG+nfeNXsKhrOx/mgQReMBAOlGHcnR7wnU0R7EaJvvFchHvoUTN5TaWMewmwoMaEXNaM5uU1d2R+aLiTeU54amMmqZAxgvVn2bHStvOeTfhtW08iMlGemfyWk3nCCRoWU3hYw3oPk7HnzWPKfbd5q6/SUGjmucGhMZLUyhjArPoGUkV3tnSfmB7GvaWuF4VdZz4ekzOxRzSRnon6KKujdrZigQdBw3DcsRu5YjVcMD5GM0uUlePYCfK956RV6dNuVHZ89W6/Q33lS0cNKy5g4nCdCtCkngmcX57zrc25XLFVyu5r5A1U9NPVyXNH/ANKhoIqRmbO7tPzHWWS2S90WY7lLDLE657bkyR7NVxCbXyjTcULRb2sK+0IdxX2hD3o2jH7pTrRd2MT6uZ3tK8nAZQFHHPUOuY0lUVhtbc+fP91NaGi4C4c2SGOVhY9t4VbYkkd74ek3ciCDcR1TntCMrnZmqhsWaa50vRb+agp4oGYsbbh8yywxSi57QVU2J2wu+hUtJUw60ZWMsZYwWMN6x2rKBY7joChoK2fRGbu9U9gMGeZ9/cFFBFC26NgHU1Nn01TrNz7wqiwp2Z4jjBSQVEWvG4LKLKNWUasqxZZqM24JraiU3NaTwVNYVTJnk6A/NUtmUtNnDb3bz81SUNJJrRBPsOkdoxgj6Px/GK/Z5vxkPR6LtlKZYlE3sJUdJTRakTR1xaDpF6ls6ifphCdYNGdGMF+z0PxXL9nYvjFMsCkGlzio7KoY/wC1fxTWMZqtA/8Af0dNCw3OkaPqhPC7RI3zwySxxXY7rrzdznSxM1ngITwuNwkafrhLg0Xk3BcqpvjM81yqm+MzzXKqb4zPNcrpfjs81yul+OzzTJI3i9rgeGBz2MF7nAcVyqm+MzzTXNcL2m8YWzxOkfGHdJukc7ldN8ZnmmSMfquB4YXyRs13gcUKmnOiVnnhfIxms4DiuV03x2ea5XS/HZ5rldL8dnmuV0vx2ea5XS/HZ5rllL8dnmmva8XtIIWhcspPjs80KqmOiZnnzXOa0XuIC5XS/GZ5pj2PF7XAju5klbDGbtZ24LlNY7VguHesraPusXLKpnrKfyUNbBNmBz7uaaiIHT1T5o2aXI13usJXLJPhJtaz2gQmua4Xg80m4XqOpje67mkhoJKZUxvN3MlrGRuxcUkr7Q/4Tl9of8Jy+0Yu1rgmVlO/Q/8Arrc253AKlJFTD4xh9INjb+IrLtcwkRTG9nYdyBBF45ltOJrn8AqE3VkHjGG3SRRfXnej+zP8WC39jHjwWJsLeJw2lLJFakz2OuII/RWbajKoYrs0m7fzKzNSzeE4PR0+vHDD6RaIMFnOLqKEn3cHpCTlYh93n2H/AC9nE4LYoOTzY7dR35FXqyK7lEOI49NmGaVkMbnuOYKtrpaqQkno9gVHSvqpgwfVQxMhjaxugDBoUs7p78V2JENLt6ix3ZqWMNb8Qr7Oxs8sz3fkvsyl3HzRoHN9TM5v5hTXh11THdukaqWeVsgieccEdF45l98U5/4nUz1JJxI/qUBeeiMd29CkmdrPuXIT8VydSzt0OxuKF7XZug7coKgP6JzO5lR6l/BQHpwc2q9Q/goteHmTX5eou3KOie+MOy5zrkEnxyjQ1A0S3qSKVnrIbxvaop5Is7HYzO0KKZkrMZp/rLc293AKm2iHxjD6QbGz8TBZlrOp/wB3Lnj/AETHte0OabwcNsbfJ9FR7VB4xht3Yv8ALBZtlU9VT5R5dff2L9n6P3nr9n6P3pF+z9H7z/NUdHHSMLWE6e3Bb+xjx4LD2FvE4bX/AJhPxH6JrnMcHNNxCsu1W1AycuaT9cNbss3hOD0d0zYfSL+zgsvYYPDgrLOgqyC+/NuX7P0nvP8ANOsClDXHGfoRzEqzaRlXPiOJAxb8y/Z+l996/Z+k95/mqeBlPE2NugYKiBk8Lo36CqmnfTzOjd2KlqX00zZG9igmZPE2Rug4LZr8rJkWHoN08UAXEAKy6EUsOfXdpw1TzLKIGnNpee5RsFU/NmgZo70AALhzHMa9tzheFDTxQjojmN2eb8VDRz6ubFGI3SVFEZDiN0e0VHGyMZhzJYWSNzp2O1+L7bdB3qCUSRh2Gq9Q/goteDm1ezvUWvBzJvX1XhVLs8fDmVVHdfLDrdo3qCfJPEg1DmcNy0/1dube7gFTbRD4xh9INjZ+Jhs605KR2Kc8Z7FDLHLGHsdeDgtnb5PoqPaoPGMNu7F9cFh7CPEedb+xjx4LE2BnE4bX/mE/EYASDeDnVlWtlroZj0+w78FZss3hOD0d0z4fSL+zgsvYYPDzH6juCdrHirA2w+DnWtQcphxmjpt0YLGr8jLknnoO/Iq16/k8OI09N2Cw6DGPKHjMNXC44rSdyyjuTPf7c8lw4KCIRRNYOwdU3ZpvxUNHPlkxpJH7swVLFk4hv51ezoCQaWqjkumu7Hi8YavZ38FD6ym5tXs8nBQ69PzJ9oqvCqXZ4/DzaqIR1TmezKM3FWdLj04v7M39Xbm3O4BU20Q+MYfSDY2fiYBZbpaCOoiznPjN/wDGCgr5aN+bOw6WqCoinjEkbrwra29/AKi2uDxjDbuxfXBTWnV08eJG4XcF9uV/vN8l9u133PJWVaEtXj44Gbdht/Yx48FibAzicNr/AMwn4hUzBJPEx2hzgFX2fJSSb2HQ5aFZdr490M56XY7eqrZpfCcHo7pmw+kX9nBZmww8OY/VdwTtY8VYG2nwc+2rPxHZeMZjrYJJZJXYz3ElUFG6qnDeztKYxsbA1ozDDWG6ml8KYOjZo7+rGyTfjc9+ZruCYejH3yc+dt8Mg+6oHZ6U/eIw1mzScFTespeHNrNmk4Kn16TmVG1VXgVLs8Xh5trZpKV331ZR/eVLdz/6u3NudwCptoh8Yw+kGxs/EwWL/Lofr+qtWyce+aAdL2m78FFWy0kmM3R2hWjOyoqjIzQQFRbXB4xht3Yv8sEdNPIL2ROcO4LkNZ/u8nkuQVv+7yeSsKCaHK5SMt44bf2MePBYmwM4nDa/8wn4hUe1wfiBSxslYWPF4KtGzX0j7xnjOg4Ka1zyaSCY+z0XYPR3TPh9Iv7GCy9hh4cx2qeCdrHirA20+Dnva17S1wzFV1NyapfH2dmCzKRtNTN952c8yobjQSj7pQfdT0D/AHZLj1bdjm/H57s7Smm5o+7KhnHOqXYsEh+6qcdKkb3l2Gt2WXwqmNz6Phza3ZZfCqfWo/rzKna6vwKm2eLw821TjT0rO+9WRnNTJvk/q7c248AqbaIfGMPpBsbPxMFi/wAui+v64LUskS3ywjp9o3oggkEZ8FHtUHjGG3ti/wAsFg7F/kedb+xjx4LD2BvE4bW/mFRxVJtUH4gwSMZIwteLwVaVlvpXY7M8f6YfR3Xm4YfSL+xgsrYIeHMdqngnax4qwNtPg6i3du/xCbrDiovVs4c2SC6SopD7fTj4qzqnLQ4rtdmZw6puyVH/ADHUVEeTqXs9mTRxVBPjR4jtZvOtGXHxYG9ulUDceZ8nstGK3DMzGheN4Ub7o6d/uSXHm2i/FpX96pW3z07fdZn+vMq9rrPAqbZ4vDzCbgqioyks1T2Dos4qzYMjSsB06T/V27tx8IVNtEPjGH0g2Nn4mCxv5dD9f1w2nZbagGSPNJ+qexzHFrhcQqPaofGMNvbF/kMFhbF/kedb+xjx4LD2BvE4bW/mFRxVJtUH4jcLmhwIIvBVqWUacmSPPH+mD0d15uGH0i0QYLK2CHhzHaruCdrHirA20+DqLd27/EJmu3io9RvDm19Jl2AszSNztKY97pcpH0ahuvH7ypa+GfNqv7WnmVdfDTi7Wf2NCpakyDFkbiSe7zP9lqf+Z6isphURXdvYmukEnuzN/wDkqaujl6J6L93Mqa9rehF0nprXySGNpve7XduUMTYY2tHZzKqLITPB9XL+RVFV3fuZczhoO8YXOa0XkqpqRO+/+0z8yrNidc6Z2l36cyt2ut8Cptni8OGSaKMXvcAFU1bqoFsZxIRrSFUlPyqRhxbqePVHvH+st0Hlx8IVK08phze2MNvi+jZ+IsV24qxwRZ8V/fzLRsyOqbeM0m9QQyQ10THtuIeMNuNLqI3bwsR/ulWGCKIX+9zrdaXUeYe0sR/ulWK0toWX7zhtZp+0J83aqRjuVQZvbHMIBFxVqWQYr5YR0O0bl6O68/DD6RA4kPFYrtxVli6hh4cx2qeCcDjO4qwQeWO8HUW608t0eyExrsduY6UzVbw51ZQR1HSHRkGhwU+OzNWwE7pmaVFK/wDsWg0jdIstaXxKfzUksn9+vaBuZpUZ0ihpyXfFeqOz8i7LSvx5T28xj4XR1MT5cQ5YlZaX/UW+Sy03+os8llp/9QZ5LLVH+oMUMtSZG/xsbs+jmVVFHUDc7scp4J2eujxh77dKZPK3Uqvo5cqrPjRqSVzvWVN/cxRUs8ouazJs39pVNSxU7bmj682aCOaMscFPSzwdF7MpH2EaQo6iVvq6n6PXLaz4kXmpJXSeslx/utVNQySkOmGKwaGLRzK3F5bUtc8Nxm6VymoYABXsQq6k/wDqEfkjUSnTaP8A0tTG47rxFLO772hR2dPMQ6qdc0aI26E1rWgAC4f1hjjdpYD9Fkox7DfLCQDpCybPcHlzpKaGRzXOZnboPMxG+6OoxW7hzDGw6WjyWTZ7g8udFSwwyPext2NpwlrTpAKycfuN8udkYfht8kGMboaB1BYw6WgrJs9weXUvoKR+mFq+yaH4X5plDSM0Qt5xp4Dpib5Lk1P8JvkuTU/wm+S5LT/Cb5LktP8ACb5IQQg3iNvOfTQP1owvs+k+EEynhZqxjqZKSnk1owvsyi+Eo4IY9RgHOdBC83ujafouSU3wWeS5JTfBZ5IU8A0RN8v+3y//xAAsEAEAAQIEBAYDAQEBAQAAAAABABEhEDFBUSBhcaEwgZGx8PFgwdHhQMCQ/9oACAEBAAE/If8A0gGenpAg5BSbjAO6gzLF/lNjPiZUE1YzJDNWnOzm4aqsDLO2kAqNfyfKVqApSqmxE1Tdko5CUxQcxNmYUxZdGU24g148zu2lhsSrqoSdynYQ3YIwaBMMOXiZIPOFVqH5JUa8o9RbYQs/TNITdiO7SCyvHQh5OInOnLJVzhjmddkK8FbyIjkG8GVcEyJnlic9jnUIGHcYHmJU3JoBM+MFUqpyl7W/ItJl3kROWZTEuYluxVjSKzNeGsrKysWDChsY5kroJX7aFknQp13eWGtWZLZFZlcaysrKzUKzlLCLxjuS3fkfyDnlkS/fOFC01IHcRFVYBVUJbr8Qp6BWF4ezh36FVidK3UpLRd5wJUa4SEKrLizZ4nZ3tlSK1hsSt7Mvh8pZyFZlN0hZVOsPbiD+FjnfQlRe84Tah0g1TZWVlG0VEix0Ve3Ln+PNVlGkciVlU5ww9GGXU7zAh6lBadMOAJK1ylUqW7KUEgd0sAJoG8DV/bEyv/MdZywvB3M1j9kqIqzPFdiFCzkjtPLoF69vMmDpjnY6kGbN6yVNoespAeupCSVMMk5StYAs3gp0ZPx1anCnaBbh6lFi80rVJSNx5IAFAoeAiGmjL6bdiDVXaOs5YXhmp7Ss2t28EVUJQw3tXWUV074YIDbwVZbQlwjpo9IXazhqJQgyuWZowRBPxuuDNsSxVmywlOusVWMYRmd+Rt4tf68kqiVWGANn9iOaYgqF86wCjfXiKBofJlBq1b/2BAjZlcMtjMl0tDy/G6a5RSAmlgqfKGnY26+KsNgiPL0IMPlRaRki15RkgzdAhbqnV8ZzZVTnFvnmUrKXVG5L2dH8aWgs68OBYW6b3mn48W/V/wBWFp0LWVtezvHKWITsnN2JT7Uzd/8Ags1SyhkakrBqDEk/KQDtB/GesyG5M076HthNE1/i3y/USwirLr31YKF9fjBz9w4UypU4XvlDZrd8oIlTxKcM5dVJXAm12Z6EfjNLyYLJnnfTyT4qbkCIs1IXBZqZyssL8CE7F+WDe2HrHiByNoJQPnEjQ0Uir17LxOZilLkJWPOXRq/jOX2MFmwCu6IKdR4iCNOFgYBmLS7nrwQFciG3u2/sNPUrGZTlX4nby0oGK7H6cfpvxk15SRVHWEMj1iVuQvEcDRriMaqqr2ITFAoYeSq7TzkpWcC1jSbTviFnXR1WBiuyl0JneX8ZoDq9JYNnA2HBReDU8TI7pRkBTJ0SU7wkhXWUDnhWq2V/cTuqtSurvNCLFhvlkP7NFlfr4l9slL+SgzMynRuyj+M05vQlDmemBqEb1GVvxYUXnmRzveyn88sHi/YxQub4EWhQi4Ueszmjq8niiLz7RKSd2E1TvmUNS6Vef40+mLCEEw85meCpXvkoOfj0EAZG8XWsg0EInQJbFgo66Eo/iMvFunPAjQlY7Sl1KkQDMgPT8apAvm6TnTBb4Oso/wA/+0NJUSz4qHp9TK86GRoP7Dp0CVO0O8q0KktCVg5oUSg08UsvPpF6rylZWb6aRwFnu/jZqWFJl+D2iEqYVO9B5LKV6O1g0lRyfDDouwdZekPmUFUxtNNJEoljkQRVYFW1W39l2t+c+Kreq8+Vwiqr+pRkZSsrFyWe8B8/HFtt/Oaj0x/dkG23Smp336lHuuqzPAsarsuxIjk5s1CbTIi0ruW1ZTxYaRAVWImatANZbkjdtyxKi+h/UGzdIPAR1PAZE2DI6xY5X5aADQx6i5S39/1/HlA9z0YaP/eI3WMES1sKnkzKA8jDA7lMrPrafUprZ0vO7faegJ/crC382UlKJD3uZdN9BlUttDQgiqxcbVoBrKPDEPIndOUq1rW8r2hQLm9clEHW+ZALrzguQnLQuvUGFoklT6V/Uv1dXgRKFNm3dkJmx6/j1ZAiXkLhSpMaQTAWgm9itq82R0i8gnMek1TTLKusobBNMrKgAEzfn5REirrDqrGRp0/sNkMX2dMSffTCqJVc3HP0K/0Q0KYL2UOe9ZKoOphy4KoWIpVbEDC/5AZcE0iqb3if5pSyfrQ2oJyxX0YDkQLTAapEJapzZXysoIRa/nM3tVfqZ8/muIVA0tAtRWN3BSEEghJAY1lmzdoHe7ukUKKv5FoJRn6Z5jJ6ilYGX+zP1swk8n0zQPEZR1mZ09LRZVZUM5lF4Ja8pVDVsygUwZBwlAfefuaSJkCaMKQIECBDgzVjFD+xGr76Byh3/JaL7KlZ5q35lyVmcpnPwXMjpjK2klTrVhKHXZFCPLwTm356VYO1kxNOoEKMyHOhvzmR2GLDyk5KGpFTPN1+UoNkl9q+lJXq/Nmi9Ocz6TUuNi9ez2xPGLoQ5yqta7Wlfr82Mr6XBLplCjW6DUF5FP8A76VQHZBHge7AxOpTSLvxd4NpDi50Bi0EGrafX59fn1+fQ59TlFP3VcKYTuqT6vBRdwa4k3854VAqzR7eBqfzVxFEPmpEaK8uIdT+ak+lz6nPrc+pz63PpcK79DUigVaBPq8XBb08NHE3WkQz9POa8lU4KEr1GOS95xL2awvkpv8A4jFnvcKocjSuz4Rdo5QpgOqOaTaKacIIsglFai5c+HLIIdNRcq8C2lNsNzyP19G6HXnb/ucqgD9+PbvZiT/NZBIIlROAyrYg1x9mKijmfAvs2DX518VbU0nRLHzPo4Lh8qS8bMxNodYKZMQSrRhfe3EZ8fvglLv/AOEENRlPsqjzN8aJIaxiwHlkyD9WxBKpRYKBVoETPyeI+fAN2GenrRPvsJryZYUKv/Gy4qTac+A+Q5wyPAW555MsKaiymVPKYUZZG0PPR1ZMtrRzOB066UOGsgfAqqVElp2UpzyJ6iZZeZS8/WcyHrT/ALTfB749o9nBkrPlvIfxVEx7f2T5jfH2mFMvVLp9mT7In0aLUjVg7Nh8dvj8ZsjiVVEgtAfTGPlaYe3xzefgRXyihVSfToVK4tSCg2Y5OFD78n16V+dKvPA9Kh6Qt7qzubzWOXNyOLUcNex5oMKqtiGU6n84084OSimBU0G8hoADTgaFTMYpKZXFyjgyOnGxw8gh8yUTS4KYF9GCqWubSaqNTnjbN8/Xh7WPglA/T8FJYDoiZF15tBAJk/8AYL4vfHsHs4kKrr7eZAVGsmHZ+yfMb45vT4FOzYfJb4/GbYGkAySBYWDj4WmHtMc3n4k7hO/Tu/ucRZG68xtERRzJrd4Atl0ORvFVqz/VRxFPILLX1FBeW8Ecpnvm8yOnGm5PPgB1XeLfv7StcG1X9L98UPgnSVU6bhB+pGxjCV32f9mvi98ewezhXh7Kc4o6yqbxKvwPUdnAnwG+Ob04UFNdb1YDD1U02dxuyYfKb4/GbSrRUlObH2bv8nnBUI0SHZeR/dD87TD2+P7eK+6TuU7n7nHWtp9neVRqSwGgq8oG8t9olMYNAxV5uhOjqfDdOp94ZHEqrmlbmy8YcwRjGmzq5enP78Pe56geBx9g4ebiENP/ANhr4PeGHaPZxF1ug7iIjRgtavpsrz61PgN8c/ow5m0Rn2mfZY46lSlFMezYfIb4/GbT5XeHbFcZemjocnCsk3n6HDtjH93F/fp36dz9zjqmAokbqzoYFUJtgVeDnbDnTyL+E/We8MjiNDuS9+d5xAJqcRv7o7zix7lOon7vDZ1E7PgKPtHCA+d6cnNT/s98Xvj2r2cO5wrK0d8wG44fN74+y8Buz4fD749t9p87vgY0VEYwBfX9se3Y/u4r71O5TufueBmy7dOy8OSQueSUmx6U8JfJvDI468WG7aLlabxVy7uvKSiv6ljzrSVW1vPvBqVOAuTUPOdYvgFTop2jgBFaBNkvrq0U9eeY/wDYz5vfHtHs8Mj4AJTCiiM+F38NO7Ph8vvj2X2nzm+IdgURgRqZmHtWPvOKu+TuU7n7ngZsuwTs/Cjqr/gjbSzWKdoBW0tk8FEWvv1h+z6rdN+A+TnDI41mU3fOdDNHRC8kzeOUrl+2yJ5GLo2IddhwZS9aFi/kLEViA1ZpIkqBaZPA7BO0YoyrVZyPCleRCFbb3qP/AGVRSGdH+uLUBo9mVv5Q1FP98CKmRbd1iHvdWNGlZfQSjyl3Fm2oZ9fAoUf2Y5lXPtGXP+/A6ARzItX80XaMVKGqVP5RCpTg9ylJUc0MlNfv4FzifQymkFC5OKjtJgxSn+1AhyRUYcs3h1tXHWHqjs/9oCqzz06cFYblUrrNiX4j+R+U/U+t/wAgTcCwu8FSNvIzJZVLKSyW9mj3gnv1Jbk5aXkvNQzGtdTw1gQ9oBUjEC0s7V5ZyedERBXplzROmgAAKBwIU8QKFD+FC3+TOg+OUEt+Z/IGy82yL7YYQGwFAP8AsYq1zDDJF5MRKAnOA5eigBlwh+WrqYoOc+kgBkcVKz6LgSqt3RAWoL0cVed0sse84VlL+CZcL/no9V7kU8C89eKwHIfJ4CCUSpG613K3tPjUu9Zu394AFAocKypXk4bWc4kAmocWZPywSh0Pl4ObeANaPVnsrcVaE3Qz6ZPpkyk+SAGR/wCfK//EACwQAQACAAQEBwADAQEBAQAAAAEAESExQVEQIGFxMGCBkaGx8EDB0fHA4ZD/2gAIAQEAAT8Q/wDR/qGbLkvGjFmUR6uEwkOwuf5IhA1HrkwgHuVC0etFIB2HCCJY+GZYnVl8GLikJs3sS6YMM6PcSiATpKQR9YIGOj5nUCqBK8/URyrXRImkzoYspqu3ZQABBG0p3jcwhEzy7chGNnRh4pHUJXjq6QAIic5iA7EfS+RjdPutsJnbM2ojMESG8pppLdqZt7JcVdo4+iYdMm3mRAG9Bmxrbp/3QAL6JlHCEYu2YIBMLtDMgickRg62GuH0hqJKKQIsCU9RztpJs8i8ARwbkQwarKglQolnxbdhUS/C3aaBI7ib8jMexDM6E4DAxX6MNI3aGAnZvMTpAEFCqubkQijjvNGCYHCWdBux62UuXwvgpKcAS1UubsTT+MXd401CmDGyS+BoQehGyitzCLodSlwOjJfDg9bnVgy4w8PA2M2s2ZgT2GUAQqjhiCGwj3HmB5VOFIuuqtYBATILsQ7AfrF7lYrKGq1H2wdspbgd1QmK1/kmOiDeFUFMxHKe32EIDDqNk7o85VBDbVK3xYMP7Q1SK8dYMg7Eeh9owDGwiKrsGbMOPuwZx2zFl1RtYRah15jR8aY/8xMIwe8RIU947CZrwMPRrN51oZjA4baQhqhifLyigCLI1eBsbQA8I1DgZSuv1O0VVXOHtG20h1kuwehG3bskhQaByD0sym4C3o4kbVvc4KdBAxFB5iX/ABxKosxSGDKLx/uXQBAwh2bS0o1nSEy01YUmz5kvlD0h3Zc4usyZeNC0FobYBxDrtIx9WJHNgLAzGnGCiu4QcaZJFjsTF8QI3GMu0sJoy+YHXl0zlOnqwiAwJUDKGNF7SzFlP11voJVe3A8oPCDIPACTlIXF3uljOJqojC1lV4y6AJcsoa5RYlyHVAtQLVl7ZWCWu0aJHHchz+yHghLIwWfeNSQOOg3i91BZS2doRLBlmWoO46xkLEsfLdlPvWPfEg/Xg9gEYK2sIOuA1mDDlo2mnxU2YU3GJFLsuKKGBrXQl3EMGSAh06+OwbqANp8RDmAuspbeCmxNBCrIWMwykddZfl/nM8jery2ddgl92UBoRegcNF8wbstQZvr4oDhE5+bphwiF4DEv7iJ0bA3lPANN2ClDBBvGuueMB65ujaVGZrf5IxhjlglUHJj4UR8tSU0LiL6tDbLO5ws3cI90JOgb6viKArFuvsJMAErLyYqZNHpqKIgQb1fSkY8DqLd/gIVp+vqRSMASYG51UJhttnuo/g+WUx5qpYpzWGF7iMZwdiH7B9b4rHULHePqnOIgM1oh5kZX1KBawYhGv+qBiUDrcB0eb5vYiMJ1JK9eoccAEESxPEMphX0Ylhxo9GEWDoyzXjOrbeWdM3ftKk3WZkw99LPq194CQX4k8lOXQIqGLUbGhAkGnZu3WLVVjsWoKOsLLVentwM6YQ1W0agtaQ2IPXdxawDRlrBcTriU+JGgHC96iX//AAwjBMJ0YMd9w8srC6yzcdQa7sq64QerXxM6VqUhxjl0Imv4C68K1gCrsEffZNjvJggCjqxhRqc3xE2O7jOsD2eB7TLJbw28s9r3U7JRFiSi+5Lm2aD0x8QEFEwcVONwNDqMCGGB04aQHHo2QKwovoNorMWK5xFdzCJsnxJW9od2Fw/apY4wbvyy7on9iW8O9qM3gsncgq4hJ4mZDLbOjE1i+9HDKq+nQG66EFYSDvuxweiBp/ai4n4hbxAerYf3QPOA231PiGqBp96lltPtwn7E7cydbfyyT+THvMJNujqoQd2IQCzEZbWmfFepF5IduOxPc69KXu8DuXlqSduj0VpIDAAKA4Sy9XBxbETBOGOfiyAT+Dv+RwvPLB6CpctfVnloDChiKhYlnBrDKMBslpuZMDhoNcDxw8h6i2IrKz8HOV6VQRqL4Od14bzHD29IAAAAUHiKAq0ERNrdNDNmURRCam9YltwY2GZFKewry0lsJ70Ek6PpBgJqzIFOARIsbhB9QX8ZDJHxSrDWFn7EaoX+hjHzUQu7Bg0sDVxFtXA2JW4BB/UXpwPaaDxX+IZ9zMd2YIIC2xCdzLy3lvRcFqHZl3eB7vJgtLEseDBDEybzQoWKH8cU8hLNYNieH0k0MwykuF7bDQhaAwBH6gF05HeY3V97qxDWDNjcsGD7Q6AQ6/igeDprqK3Z2RsgABQKCEEX+KgBq5QHA7z5cUML4hrFgYozv1B4VqELDgJh/qGLJx0jdw/ulV4E3cLwxmKg+mW6scKM00koCoa6SlYpj9RMRbMN3VjqgGbKzj5g4YO0fXcFAVY4S/q3aMtDl/tARNYlj4GS+Y1rLCkzcg2EOhQgy4bU6UNiuwX5dkERLGX7Y5qRhgZMEIo16poxta75naExEsppiAYtkWUXasK4IMZ16nAaMb4Mdb00WHF8rS7O7AA+o/6yrXpaSgsp3kyo2TB+YDNmHM4rVBRy9uxxr44K+JwHEYruCD0/9RtNIRdcZiHvUyDczJ+pEC0fUlFT0SbWLCLvX76dYHqxUMgCjirNBHa+kRKQDF3ar5eGw0IxqKFhpCu+3+4mMZI3wrgYhb6DAKI6lkVcfeiXvgMLoC/H0SgqW+OIArZBKZbOsVZ6laI/sFH0jS2tTaxH2RqxeMYDI6qf5ZhfiD0hR6Y+lSpiqypUStSZb14fi662TIb3CGU46yXXa9W4DO4wlACBwuNKxKrjj06sCAKPmCOGNKjXA942hA1WKlSfWzcCuWSr45okdlANMyIzAigX3xllfenOgimh2IktZeYz2QBUT/lgmEZicewQUDtFbVzxeVAlQ4U2bKDCIBCXwCtuinsNnoLOHFMXzEgARKRjSjXmBJtzB7MErdhwhwDe6Lqg9Bjcx9I6KQL+sIEnW1csBBtK+Nd1tjjFCkxokaORwI+XpyDrmhUHKbOaQRpLnsbompCkl2vKqCBCXAMG9iBGltFFqahTpiazMazW6+ZUKTuQ8FSbhRpQsUJv8B0kSk2YlY1XIC2UslOvZggE5o8FyPSwpf0nqNDR3ajYJ64E3L2lGv2g8ki8BO8FK1oEqJOLfGBg9THeaRUCOYxBX3FkJTvS0/t2d2cqTnBpMY7lVfGTtmYBJT31jBFm6To5Gr7KAzBt9ix0zoX/AO+ioaaojVVkk8V8uv0LLCCII2cqoPOQf2mVFJJeOdXhwHq8lZNaWfB30J20hN+nAndtUBfdhEWobIwfU4rguaQsu+VEgAWrEWxO0RhjNEHtxZomhEvvDi3YSCII8AL1kifnnXfv/vfQKcjJXUh1gKrkBGDuXTQCry9AFofMyVRPLDQT3Dkc5dBXj96YGTHB+icdfXj/ANoE9DbyumC2CzYfCvTWmqLaF3mZVQYt3SyHFLUeV/aUr0IarDGlHKcKjtY5ug1XyE8OKHKOyASP7gSAL2Y0ESx/mpRtJxUf6MMjieypAfGBi3IWI5I8iZdMEWRccBsU2C7sx3mO/Birv+CqHbuy13Li0xWxBvO9o6+TghpJlTarLaKq4hhdZQFBI21bl4Uw8ZrnBI9BESxip99NtaCyBGxIF4k3dPiDI6lieSUOBLrxNzydiDgdYFq5ATG28fB6Iu7rqy65cKmqJeNBNXNjL40wYpKhVb0EEKljAjiYa22MXY8BzT0CDdvdSIWIG3DqEQJbSj/fkMF1VdepyX6Q9q/fK7vVAOTG0CRgCdLQRJZ6pCl6dM5S2eEIEEbBkaVmajs/zQ/k7YZHIuXxjFnEAGlrEec5bN4JdvpgHF7p0pj/AJzWL4F93A1sL0iTIW85cUDh74PHl+H4DhebuBwCHjLEjFcwll/jS7EIa0c1JlBa2itxWrwuxudVokUmdMaYjW49C1yBXFezqPBkyKZJaYwGKrBv1DbbcWE0yaWkIPoPgZ5YHtqAUByCMGgWMLOycVXjmdo4/wC4z4Lne/TOhLP2eqobJudXkbDCYeYxGvoAaQbNUraHF2uqe8H7c0s97kcgr3OMglJFI179TFQ7PPW5QgI7j/Mv+rthkcs7vs8pb51v4CG2vi5riP8AO28E/KKKRIOQZS5cBkMw32uW/wAByfj7T8TfnfPTDtzWkUkSkYxUKRbhAsVrd15RJatrEz6UHXdxzgCdguFrUvXFqhWgA9XwcztF67HwXPirfe0Yxg27rzOkUFveBHaAWzrydQm65TptnLuvfIIOphcpSnpekxRLDb32/mH/AKu2GRybsA7vdHIIKCkaSW2SL3B6mzDcDxPVBvBU8Xy2vQuXQ1bCcznvINrnpCcr/wAnfx/Y2zM+Wqaql+GBL8kPWRYjSMHMAMs6JFeRnweM48P4/k/P28Hh58VbBnAERGxhADK9tCghEo5oolONNsccw4ml87zr4Tkz0TR8Y5nFzElOXH0QwKDmTgN/TBE42O18WL2kuqL8uZyfy8eSqUVy2gD+aFQV+TtmQ5P3yPvgE06YkQAiNIxiiwdwY+CyNSIYnN8HG5lV2+FakPBveX5e/wB/fx/Y2z93bK7KonQdWMuIiNI5wCoc3uVHDZxvJw1fI/xNp+Jv4F4Vj7ixGZ6Q3yYDNQg4Am5O4Jab4n9Cz0iAJknguTL0dJPiHN1VSInVHSKONYCcyeVVPdIDTF7RfEXDBTkblmJinu/fyV9lz/CktoAej+Z/9XbDI5J34u/gWTn6EOwUCpE0eCpuIzPF47Sr/Thjr9OHg/RQVjH8Thr6eafJ380PzNp+5v4V634m8FD+65EERiObn0IhqMwM78E5Mo6Tn4xz4bbZMhgpUwd1DmTB2OOTDB0LqnFSefuxKHV1sCDABLEseQuc/Wow0u7pKvwfRw3AVXICJii/0yqUbv5i1v7u2GRyXvmfZx7OdxDHmBUicjmdwsrwzIv7+2I/Bl4vXINYjF9jepym/P5s/pbT9zfwj1/wt5+7tyle70yB/D5C9UaZjwqnJaBg8UoKoDji+XE5MSdJT8Y5/hE6Jhx2LAwQuR41QKoEWBkNXdiNW4WOrT7lYSh3dV5MSmm5Z4+jBJtEZ6KmCPAhj2pQEu1bb6AmMccOw8APwexiAiY9thIsVFrYQV/LoB0wTX27phkcDhmoxihvVGMK/t5B66C+mBoJo8QK6Gn/AG0FHatPMHEa4Nl7mODZ6e/jfxD6OBxm+Wx5A/uiFiMas1jzn2XFVahEcUnZRYy5JsN/og0XGh1jRYH0/AsSkZG6L128RbMN9ua0PH4BE3mS1+A7qTYjzRm7+qhTrccGYVP7owZgdt08blAruE2CG/GHWv8AUwJWgmGl6slOIT6EKOQLZsbBnpZ4OsPOgOD1DDsiIOt7xvpeE78n5TMM5/KCnyTqtyIFTeG7cGHDlWHS2ZZ/CazRoYN3q4EM9iIDrAoDIDkxaCtqOVmC+ASJ7opbFfZb9IWE3FJu6R/8XEjLiCoA/mdd7MfMaF4yQuPSwQEmRHtAAABscp3P5YJxAoCbM/4+AUAbHMgUgkCy9hAAoAOLduzQYWFMkBOVBESxgaxFcCTiKABkF9oZIu0AAAAHKZXE3k6UCrNeAuIDU/tGxa6B4D4SZiWMfdVCXRRXBxoSPCDICjlRoCq3Kw/+aj/8VP8AnoB/mi4ksCJzWtm60GY9yItZkgvwU7W3CmUBIGCl1MXM533RF84weUZEWdyQFAGx/wCfK//Z;" parent="RitShuSk9gEBkKMNWxYW-2" vertex="1">
          <mxGeometry x="-820" y="-925" width="240" height="240" as="geometry" />
        </mxCell>
        <mxCell id="AdwZOULkYBbnNzE8PJ5Z-18" style="edgeStyle=orthogonalEdgeStyle;rounded=0;orthogonalLoop=1;jettySize=auto;html=1;" parent="RitShuSk9gEBkKMNWxYW-2" source="HRck63KKs1VqO-XyOJvi-45" target="RitShuSk9gEBkKMNWxYW-37" edge="1">
          <mxGeometry relative="1" as="geometry" />
        </mxCell>
        <mxCell id="HRck63KKs1VqO-XyOJvi-66" value="" style="line;strokeWidth=2;html=1;" parent="RitShuSk9gEBkKMNWxYW-2" vertex="1">
          <mxGeometry x="-880" y="704" width="2190" height="10" as="geometry" />
        </mxCell>
        <mxCell id="HRck63KKs1VqO-XyOJvi-67" value="" style="line;strokeWidth=2;direction=south;html=1;" parent="RitShuSk9gEBkKMNWxYW-2" vertex="1">
          <mxGeometry x="-886" y="607" width="11.11" height="100" as="geometry" />
        </mxCell>
        <mxCell id="HRck63KKs1VqO-XyOJvi-68" value="" style="line;strokeWidth=2;direction=south;html=1;" parent="RitShuSk9gEBkKMNWxYW-2" vertex="1">
          <mxGeometry x="1170" y="630" width="280" height="80" as="geometry" />
        </mxCell>
        <mxCell id="AdwZOULkYBbnNzE8PJ5Z-21" style="edgeStyle=orthogonalEdgeStyle;rounded=0;orthogonalLoop=1;jettySize=auto;html=1;" parent="RitShuSk9gEBkKMNWxYW-2" source="HRck63KKs1VqO-XyOJvi-74" target="HRck63KKs1VqO-XyOJvi-76" edge="1">
          <mxGeometry relative="1" as="geometry" />
        </mxCell>
        <mxCell id="AdwZOULkYBbnNzE8PJ5Z-26" value="&lt;font style=&quot;font-size: 13px;&quot;&gt;Processamento de&lt;/font&gt;&lt;div style=&quot;font-size: 13px;&quot;&gt;&lt;font style=&quot;font-size: 13px;&quot;&gt;Transações&lt;/font&gt;&lt;/div&gt;" style="sketch=0;outlineConnect=0;fontColor=#000000;gradientColor=none;fillColor=#ED7100;strokeColor=none;dashed=0;verticalLabelPosition=bottom;verticalAlign=top;align=center;html=1;fontSize=12;fontStyle=0;aspect=fixed;pointerEvents=1;shape=mxgraph.aws4.lambda_function;" parent="RitShuSk9gEBkKMNWxYW-2" vertex="1">
          <mxGeometry x="1200" y="-537" width="48" height="48" as="geometry" />
        </mxCell>
        <mxCell id="AdwZOULkYBbnNzE8PJ5Z-27" value="&lt;font&gt;Atualização de&amp;nbsp;&lt;/font&gt;&lt;div&gt;&lt;font&gt;Estoque&lt;/font&gt;&lt;/div&gt;" style="sketch=0;outlineConnect=0;fontColor=#000000;gradientColor=none;fillColor=#ED7100;strokeColor=none;dashed=0;verticalLabelPosition=bottom;verticalAlign=top;align=center;html=1;fontSize=12;fontStyle=0;aspect=fixed;pointerEvents=1;shape=mxgraph.aws4.lambda_function;" parent="RitShuSk9gEBkKMNWxYW-2" vertex="1">
          <mxGeometry x="1000" y="-519" width="48" height="48" as="geometry" />
        </mxCell>
        <mxCell id="AdwZOULkYBbnNzE8PJ5Z-28" value="&lt;font&gt;Envio de Notificações&amp;nbsp;&lt;/font&gt;&lt;div&gt;&lt;font&gt;por E-mail ou SMS&lt;/font&gt;&lt;br&gt;&lt;br&gt;&lt;/div&gt;" style="sketch=0;outlineConnect=0;fontColor=#000000;gradientColor=none;fillColor=#ED7100;strokeColor=none;dashed=0;verticalLabelPosition=bottom;verticalAlign=top;align=center;html=1;fontSize=12;fontStyle=0;aspect=fixed;pointerEvents=1;shape=mxgraph.aws4.lambda_function;" parent="RitShuSk9gEBkKMNWxYW-2" vertex="1">
          <mxGeometry x="1090" y="-585" width="48" height="48" as="geometry" />
        </mxCell>
        <mxCell id="RitShuSk9gEBkKMNWxYW-6" value="Global Client" style="sketch=0;outlineConnect=0;fillColor=#fad7ac;strokeColor=#b46504;dashed=0;verticalLabelPosition=bottom;verticalAlign=top;align=center;html=1;fontSize=12;fontStyle=0;aspect=fixed;pointerEvents=1;shape=mxgraph.aws4.client;flipH=1;" parent="RitShuSk9gEBkKMNWxYW-2" vertex="1">
          <mxGeometry x="-300" y="-1120" width="80" height="77.95" as="geometry" />
        </mxCell>
        <mxCell id="RitShuSk9gEBkKMNWxYW-7" value="Route 53&lt;div&gt;www.novatech.com&lt;/div&gt;" style="sketch=0;points=[[0,0,0],[0.25,0,0],[0.5,0,0],[0.75,0,0],[1,0,0],[0,1,0],[0.25,1,0],[0.5,1,0],[0.75,1,0],[1,1,0],[0,0.25,0],[0,0.5,0],[0,0.75,0],[1,0.25,0],[1,0.5,0],[1,0.75,0]];outlineConnect=0;fontColor=#000000;fillColor=#8C4FFF;strokeColor=#ffffff;dashed=0;verticalLabelPosition=bottom;verticalAlign=top;align=center;html=1;fontSize=18;fontStyle=0;aspect=fixed;shape=mxgraph.aws4.resourceIcon;resIcon=mxgraph.aws4.route_53;flipH=1;" parent="RitShuSk9gEBkKMNWxYW-2" vertex="1">
          <mxGeometry x="160" y="-970" width="80" height="80" as="geometry" />
        </mxCell>
        <mxCell id="RitShuSk9gEBkKMNWxYW-8" value="WAF-primary" style="sketch=0;points=[[0,0,0],[0.25,0,0],[0.5,0,0],[0.75,0,0],[1,0,0],[0,1,0],[0.25,1,0],[0.5,1,0],[0.75,1,0],[1,1,0],[0,0.25,0],[0,0.5,0],[0,0.75,0],[1,0.25,0],[1,0.5,0],[1,0.75,0]];outlineConnect=0;fontColor=#000000;fillColor=#DD344C;strokeColor=#ffffff;dashed=0;verticalLabelPosition=bottom;verticalAlign=top;align=center;html=1;fontSize=14;fontStyle=0;aspect=fixed;shape=mxgraph.aws4.resourceIcon;resIcon=mxgraph.aws4.waf;flipH=1;" parent="RitShuSk9gEBkKMNWxYW-2" vertex="1">
          <mxGeometry x="600" y="-807" width="80" height="80" as="geometry" />
        </mxCell>
        <mxCell id="AdwZOULkYBbnNzE8PJ5Z-77" style="edgeStyle=orthogonalEdgeStyle;rounded=0;orthogonalLoop=1;jettySize=auto;html=1;" parent="RitShuSk9gEBkKMNWxYW-2" source="RitShuSk9gEBkKMNWxYW-9" target="RitShuSk9gEBkKMNWxYW-35" edge="1">
          <mxGeometry relative="1" as="geometry" />
        </mxCell>
        <mxCell id="RitShuSk9gEBkKMNWxYW-9" value="&lt;code&gt;&lt;span style=&quot;line-height: 115%;&quot;&gt;&lt;font style=&quot;font-size: 14px;&quot;&gt;cdn-cloudfront-ecommerce&lt;/font&gt;&lt;/span&gt;&lt;/code&gt;" style="sketch=0;points=[[0,0,0],[0.25,0,0],[0.5,0,0],[0.75,0,0],[1,0,0],[0,1,0],[0.25,1,0],[0.5,1,0],[0.75,1,0],[1,1,0],[0,0.25,0],[0,0.5,0],[0,0.75,0],[1,0.25,0],[1,0.5,0],[1,0.75,0]];outlineConnect=0;fontColor=#000000;fillColor=#8C4FFF;strokeColor=#ffffff;dashed=0;verticalLabelPosition=bottom;verticalAlign=top;align=center;html=1;fontSize=14;fontStyle=0;aspect=fixed;shape=mxgraph.aws4.resourceIcon;resIcon=mxgraph.aws4.cloudfront;flipH=1;" parent="RitShuSk9gEBkKMNWxYW-2" vertex="1">
          <mxGeometry x="273" y="-808" width="80" height="80" as="geometry" />
        </mxCell>
        <mxCell id="AdwZOULkYBbnNzE8PJ5Z-32" style="edgeStyle=orthogonalEdgeStyle;rounded=0;orthogonalLoop=1;jettySize=auto;html=1;" parent="RitShuSk9gEBkKMNWxYW-2" source="RitShuSk9gEBkKMNWxYW-12" target="RitShuSk9gEBkKMNWxYW-13" edge="1">
          <mxGeometry relative="1" as="geometry" />
        </mxCell>
        <mxCell id="RitShuSk9gEBkKMNWxYW-12" value="Api Gateway&lt;div&gt;ecommerce&lt;/div&gt;" style="sketch=0;points=[[0,0,0],[0.25,0,0],[0.5,0,0],[0.75,0,0],[1,0,0],[0,1,0],[0.25,1,0],[0.5,1,0],[0.75,1,0],[1,1,0],[0,0.25,0],[0,0.5,0],[0,0.75,0],[1,0.25,0],[1,0.5,0],[1,0.75,0]];outlineConnect=0;fontColor=#000000;fillColor=#E7157B;strokeColor=#ffffff;dashed=0;verticalLabelPosition=bottom;verticalAlign=top;align=center;html=1;fontSize=14;fontStyle=0;aspect=fixed;shape=mxgraph.aws4.resourceIcon;resIcon=mxgraph.aws4.api_gateway;textShadow=1;flipH=1;" parent="RitShuSk9gEBkKMNWxYW-2" vertex="1">
          <mxGeometry x="-10" y="-438.5" width="80" height="80" as="geometry" />
        </mxCell>
        <mxCell id="RitShuSk9gEBkKMNWxYW-13" value="Lambda - Serveless" style="sketch=0;points=[[0,0,0],[0.25,0,0],[0.5,0,0],[0.75,0,0],[1,0,0],[0,1,0],[0.25,1,0],[0.5,1,0],[0.75,1,0],[1,1,0],[0,0.25,0],[0,0.5,0],[0,0.75,0],[1,0.25,0],[1,0.5,0],[1,0.75,0]];outlineConnect=0;fontColor=#000000;fillColor=#ED7100;strokeColor=#ffffff;dashed=0;verticalLabelPosition=bottom;verticalAlign=top;align=center;html=1;fontSize=14;fontStyle=0;aspect=fixed;shape=mxgraph.aws4.resourceIcon;resIcon=mxgraph.aws4.lambda;flipH=1;" parent="RitShuSk9gEBkKMNWxYW-2" vertex="1">
          <mxGeometry x="-330" y="-440" width="80" height="80" as="geometry" />
        </mxCell>
        <mxCell id="RitShuSk9gEBkKMNWxYW-33" value="&lt;font&gt;Elastic&lt;/font&gt;&lt;div&gt;&lt;font&gt;Load Balancing&lt;/font&gt;&lt;/div&gt;" style="sketch=0;points=[[0,0,0],[0.25,0,0],[0.5,0,0],[0.75,0,0],[1,0,0],[0,1,0],[0.25,1,0],[0.5,1,0],[0.75,1,0],[1,1,0],[0,0.25,0],[0,0.5,0],[0,0.75,0],[1,0.25,0],[1,0.5,0],[1,0.75,0]];outlineConnect=0;fontColor=#232F3E;fillColor=#8C4FFF;strokeColor=#ffffff;dashed=0;verticalLabelPosition=bottom;verticalAlign=top;align=center;html=1;fontSize=12;fontStyle=0;aspect=fixed;shape=mxgraph.aws4.resourceIcon;resIcon=mxgraph.aws4.elastic_load_balancing;flipH=1;" parent="RitShuSk9gEBkKMNWxYW-2" vertex="1">
          <mxGeometry x="-555" y="-162" width="80" height="80" as="geometry" />
        </mxCell>
        <mxCell id="RitShuSk9gEBkKMNWxYW-34" value="&lt;font&gt;Auto Scaling&lt;/font&gt;&lt;div&gt;&lt;font&gt;Web Server&lt;/font&gt;&lt;/div&gt;" style="sketch=0;points=[[0,0,0],[0.25,0,0],[0.5,0,0],[0.75,0,0],[1,0,0],[0,1,0],[0.25,1,0],[0.5,1,0],[0.75,1,0],[1,1,0],[0,0.25,0],[0,0.5,0],[0,0.75,0],[1,0.25,0],[1,0.5,0],[1,0.75,0]];outlineConnect=0;fontColor=#232F3E;fillColor=#ED7100;strokeColor=#ffffff;dashed=0;verticalLabelPosition=bottom;verticalAlign=top;align=right;html=1;fontSize=12;fontStyle=0;aspect=fixed;shape=mxgraph.aws4.resourceIcon;resIcon=mxgraph.aws4.auto_scaling3;fillStyle=auto;pointerEvents=0;strokeWidth=2;spacingLeft=30;fontFamily=Helvetica;flipH=1;" parent="RitShuSk9gEBkKMNWxYW-2" vertex="1">
          <mxGeometry x="-555" y="31" width="80" height="80" as="geometry" />
        </mxCell>
        <mxCell id="AdwZOULkYBbnNzE8PJ5Z-29" style="edgeStyle=orthogonalEdgeStyle;rounded=0;orthogonalLoop=1;jettySize=auto;html=1;" parent="RitShuSk9gEBkKMNWxYW-2" source="RitShuSk9gEBkKMNWxYW-35" target="HRck63KKs1VqO-XyOJvi-74" edge="1">
          <mxGeometry relative="1" as="geometry" />
        </mxCell>
        <mxCell id="RitShuSk9gEBkKMNWxYW-35" value="S3-primary-static-content" style="sketch=0;points=[[0,0,0],[0.25,0,0],[0.5,0,0],[0.75,0,0],[1,0,0],[0,1,0],[0.25,1,0],[0.5,1,0],[0.75,1,0],[1,1,0],[0,0.25,0],[0,0.5,0],[0,0.75,0],[1,0.25,0],[1,0.5,0],[1,0.75,0]];outlineConnect=0;fontColor=#000000;fillColor=#7AA116;strokeColor=#ffffff;dashed=0;verticalLabelPosition=bottom;verticalAlign=top;align=center;html=1;fontSize=14;fontStyle=0;aspect=fixed;shape=mxgraph.aws4.resourceIcon;resIcon=mxgraph.aws4.s3;fillStyle=auto;pointerEvents=0;strokeWidth=2;spacingLeft=30;fontFamily=Helvetica;flipH=1;" parent="RitShuSk9gEBkKMNWxYW-2" vertex="1">
          <mxGeometry x="272" y="-438.5" width="80" height="80" as="geometry" />
        </mxCell>
        <mxCell id="RitShuSk9gEBkKMNWxYW-36" value="&lt;font color=&quot;#000000&quot;&gt;RDS-Primary-mysql&lt;/font&gt;" style="sketch=0;points=[[0,0,0],[0.25,0,0],[0.5,0,0],[0.75,0,0],[1,0,0],[0,1,0],[0.25,1,0],[0.5,1,0],[0.75,1,0],[1,1,0],[0,0.25,0],[0,0.5,0],[0,0.75,0],[1,0.25,0],[1,0.5,0],[1,0.75,0]];outlineConnect=0;fontColor=#FFFFFF;fillColor=#C925D1;strokeColor=#ffffff;dashed=0;verticalLabelPosition=bottom;verticalAlign=top;align=center;html=1;fontSize=14;fontStyle=0;aspect=fixed;shape=mxgraph.aws4.resourceIcon;resIcon=mxgraph.aws4.rds;fillStyle=auto;pointerEvents=0;strokeWidth=2;spacingLeft=30;fontFamily=Helvetica;flipH=1;" parent="RitShuSk9gEBkKMNWxYW-2" vertex="1">
          <mxGeometry x="-777" y="290" width="80" height="80" as="geometry" />
        </mxCell>
        <mxCell id="RitShuSk9gEBkKMNWxYW-53" value="&lt;font color=&quot;#000000&quot;&gt;Amazon Ec2&lt;/font&gt;&lt;div&gt;&lt;font color=&quot;#000000&quot;&gt;host&lt;/font&gt;&lt;/div&gt;" style="sketch=0;points=[[0,0,0],[0.25,0,0],[0.5,0,0],[0.75,0,0],[1,0,0],[0,1,0],[0.25,1,0],[0.5,1,0],[0.75,1,0],[1,1,0],[0,0.25,0],[0,0.5,0],[0,0.75,0],[1,0.25,0],[1,0.5,0],[1,0.75,0]];outlineConnect=0;fontColor=#FFFFFF;fillColor=#ED7100;strokeColor=#ffffff;dashed=0;verticalLabelPosition=bottom;verticalAlign=top;align=center;html=1;fontSize=12;fontStyle=0;aspect=fixed;shape=mxgraph.aws4.resourceIcon;resIcon=mxgraph.aws4.ec2;flipH=1;" parent="RitShuSk9gEBkKMNWxYW-2" vertex="1">
          <mxGeometry x="-777" y="-170" width="80" height="80" as="geometry" />
        </mxCell>
        <mxCell id="RitShuSk9gEBkKMNWxYW-56" value="&lt;font color=&quot;#000000&quot;&gt;Amazon Ec2&lt;/font&gt;&lt;div&gt;&lt;span style=&quot;background-color: initial; color: rgb(0, 0, 0);&quot;&gt;Web server&lt;/span&gt;&lt;/div&gt;&lt;div&gt;&lt;span style=&quot;background-color: initial; color: rgb(0, 0, 0);&quot;&gt;t&lt;/span&gt;&lt;/div&gt;" style="sketch=0;points=[[0,0,0],[0.25,0,0],[0.5,0,0],[0.75,0,0],[1,0,0],[0,1,0],[0.25,1,0],[0.5,1,0],[0.75,1,0],[1,1,0],[0,0.25,0],[0,0.5,0],[0,0.75,0],[1,0.25,0],[1,0.5,0],[1,0.75,0]];outlineConnect=0;fontColor=#FFFFFF;fillColor=#ED7100;strokeColor=#ffffff;dashed=0;verticalLabelPosition=bottom;verticalAlign=top;align=center;html=1;fontSize=12;fontStyle=0;aspect=fixed;shape=mxgraph.aws4.resourceIcon;resIcon=mxgraph.aws4.ec2;flipH=1;" parent="RitShuSk9gEBkKMNWxYW-2" vertex="1">
          <mxGeometry x="-777" y="40" width="80" height="80" as="geometry" />
        </mxCell>
        <mxCell id="RitShuSk9gEBkKMNWxYW-57" value="&lt;font color=&quot;#000000&quot;&gt;Amazon Ec2&lt;/font&gt;&lt;div&gt;&lt;span style=&quot;background-color: initial; color: rgb(0, 0, 0);&quot;&gt;Web server&lt;/span&gt;&lt;/div&gt;&lt;div&gt;&lt;span style=&quot;background-color: initial; color: rgb(0, 0, 0);&quot;&gt;t&lt;/span&gt;&lt;/div&gt;" style="sketch=0;points=[[0,0,0],[0.25,0,0],[0.5,0,0],[0.75,0,0],[1,0,0],[0,1,0],[0.25,1,0],[0.5,1,0],[0.75,1,0],[1,1,0],[0,0.25,0],[0,0.5,0],[0,0.75,0],[1,0.25,0],[1,0.5,0],[1,0.75,0]];outlineConnect=0;fontColor=#FFFFFF;fillColor=#ED7100;strokeColor=#ffffff;dashed=0;verticalLabelPosition=bottom;verticalAlign=top;align=center;html=1;fontSize=12;fontStyle=0;aspect=fixed;shape=mxgraph.aws4.resourceIcon;resIcon=mxgraph.aws4.ec2;flipH=1;" parent="RitShuSk9gEBkKMNWxYW-2" vertex="1">
          <mxGeometry x="-330" y="40" width="80" height="80" as="geometry" />
        </mxCell>
        <mxCell id="RitShuSk9gEBkKMNWxYW-63" value="&lt;font color=&quot;#000000&quot;&gt;RDS-Read-replica&lt;/font&gt;" style="sketch=0;points=[[0,0,0],[0.25,0,0],[0.5,0,0],[0.75,0,0],[1,0,0],[0,1,0],[0.25,1,0],[0.5,1,0],[0.75,1,0],[1,1,0],[0,0.25,0],[0,0.5,0],[0,0.75,0],[1,0.25,0],[1,0.5,0],[1,0.75,0]];outlineConnect=0;fontColor=#FFFFFF;fillColor=#C925D1;strokeColor=#ffffff;dashed=0;verticalLabelPosition=bottom;verticalAlign=top;align=center;html=1;fontSize=14;fontStyle=0;aspect=fixed;shape=mxgraph.aws4.resourceIcon;resIcon=mxgraph.aws4.rds;fillStyle=auto;pointerEvents=0;strokeWidth=2;spacingLeft=30;fontFamily=Helvetica;flipH=1;" parent="RitShuSk9gEBkKMNWxYW-2" vertex="1">
          <mxGeometry x="-330" y="300" width="80" height="80" as="geometry" />
        </mxCell>
        <mxCell id="RitShuSk9gEBkKMNWxYW-68" value="&lt;font&gt;Elastic&lt;/font&gt;&lt;div&gt;&lt;font&gt;Load Balancing&lt;/font&gt;&lt;/div&gt;" style="sketch=0;points=[[0,0,0],[0.25,0,0],[0.5,0,0],[0.75,0,0],[1,0,0],[0,1,0],[0.25,1,0],[0.5,1,0],[0.75,1,0],[1,1,0],[0,0.25,0],[0,0.5,0],[0,0.75,0],[1,0.25,0],[1,0.5,0],[1,0.75,0]];outlineConnect=0;fontColor=#232F3E;fillColor=#8C4FFF;strokeColor=#ffffff;dashed=0;verticalLabelPosition=bottom;verticalAlign=top;align=center;html=1;fontSize=12;fontStyle=0;aspect=fixed;shape=mxgraph.aws4.resourceIcon;resIcon=mxgraph.aws4.elastic_load_balancing;flipH=1;" parent="RitShuSk9gEBkKMNWxYW-2" vertex="1">
          <mxGeometry x="-555" y="270" width="70" height="70" as="geometry" />
        </mxCell>
        <mxCell id="RitShuSk9gEBkKMNWxYW-78" value="Aim-Policy-nova-tech-admin" style="sketch=0;points=[[0,0,0],[0.25,0,0],[0.5,0,0],[0.75,0,0],[1,0,0],[0,1,0],[0.25,1,0],[0.5,1,0],[0.75,1,0],[1,1,0],[0,0.25,0],[0,0.5,0],[0,0.75,0],[1,0.25,0],[1,0.5,0],[1,0.75,0]];outlineConnect=0;fontColor=#000000;fillColor=#DD344C;strokeColor=#ffffff;dashed=0;verticalLabelPosition=bottom;verticalAlign=top;align=center;html=1;fontSize=12;fontStyle=0;aspect=fixed;shape=mxgraph.aws4.resourceIcon;resIcon=mxgraph.aws4.identity_and_access_management;fillStyle=auto;pointerEvents=0;strokeWidth=2;spacingLeft=30;fontFamily=Helvetica;flipH=1;" parent="RitShuSk9gEBkKMNWxYW-2" vertex="1">
          <mxGeometry x="-290" y="-970" width="80" height="80" as="geometry" />
        </mxCell>
        <mxCell id="HRck63KKs1VqO-XyOJvi-45" value="Aws Backup&lt;div&gt;&lt;br&gt;&lt;/div&gt;" style="sketch=0;points=[[0,0,0],[0.25,0,0],[0.5,0,0],[0.75,0,0],[1,0,0],[0,1,0],[0.25,1,0],[0.5,1,0],[0.75,1,0],[1,1,0],[0,0.25,0],[0,0.5,0],[0,0.75,0],[1,0.25,0],[1,0.5,0],[1,0.75,0]];outlineConnect=0;fontColor=#232F3E;fillColor=#7AA116;strokeColor=#ffffff;dashed=0;verticalLabelPosition=bottom;verticalAlign=top;align=center;html=1;fontSize=12;fontStyle=0;aspect=fixed;shape=mxgraph.aws4.resourceIcon;resIcon=mxgraph.aws4.backup;direction=south;flipH=1;" parent="RitShuSk9gEBkKMNWxYW-2" vertex="1">
          <mxGeometry x="-10" y="39" width="80" height="80" as="geometry" />
        </mxCell>
        <mxCell id="HRck63KKs1VqO-XyOJvi-74" value="Api Gateway&lt;div&gt;ecommerce&lt;/div&gt;" style="sketch=0;points=[[0,0,0],[0.25,0,0],[0.5,0,0],[0.75,0,0],[1,0,0],[0,1,0],[0.25,1,0],[0.5,1,0],[0.75,1,0],[1,1,0],[0,0.25,0],[0,0.5,0],[0,0.75,0],[1,0.25,0],[1,0.5,0],[1,0.75,0]];outlineConnect=0;fontColor=#000000;fillColor=#E7157B;strokeColor=#ffffff;dashed=0;verticalLabelPosition=bottom;verticalAlign=top;align=center;html=1;fontSize=14;fontStyle=0;aspect=fixed;shape=mxgraph.aws4.resourceIcon;resIcon=mxgraph.aws4.api_gateway;textShadow=1;flipH=1;" parent="RitShuSk9gEBkKMNWxYW-2" vertex="1">
          <mxGeometry x="590" y="-439.5" width="80" height="80" as="geometry" />
        </mxCell>
        <mxCell id="HRck63KKs1VqO-XyOJvi-76" value="Lambda - Serveless" style="sketch=0;points=[[0,0,0],[0.25,0,0],[0.5,0,0],[0.75,0,0],[1,0,0],[0,1,0],[0.25,1,0],[0.5,1,0],[0.75,1,0],[1,1,0],[0,0.25,0],[0,0.5,0],[0,0.75,0],[1,0.25,0],[1,0.5,0],[1,0.75,0]];outlineConnect=0;fontColor=#000000;fillColor=#ED7100;strokeColor=#ffffff;dashed=0;verticalLabelPosition=bottom;verticalAlign=top;align=center;html=1;fontSize=14;fontStyle=0;aspect=fixed;shape=mxgraph.aws4.resourceIcon;resIcon=mxgraph.aws4.lambda;flipH=1;" parent="RitShuSk9gEBkKMNWxYW-2" vertex="1">
          <mxGeometry x="1080" y="-440.5" width="80" height="80" as="geometry" />
        </mxCell>
        <mxCell id="AdwZOULkYBbnNzE8PJ5Z-31" style="edgeStyle=orthogonalEdgeStyle;rounded=0;orthogonalLoop=1;jettySize=auto;html=1;entryX=0;entryY=0.5;entryDx=0;entryDy=0;entryPerimeter=0;" parent="RitShuSk9gEBkKMNWxYW-2" source="RitShuSk9gEBkKMNWxYW-35" target="RitShuSk9gEBkKMNWxYW-12" edge="1">
          <mxGeometry relative="1" as="geometry" />
        </mxCell>
        <mxCell id="AdwZOULkYBbnNzE8PJ5Z-33" style="edgeStyle=orthogonalEdgeStyle;rounded=0;orthogonalLoop=1;jettySize=auto;html=1;" parent="RitShuSk9gEBkKMNWxYW-2" source="RitShuSk9gEBkKMNWxYW-34" edge="1">
          <mxGeometry relative="1" as="geometry">
            <mxPoint x="-515" y="270" as="targetPoint" />
          </mxGeometry>
        </mxCell>
        <mxCell id="kzhvxiY1sLsqxqUfxJGA-1" value="Tema/fundo" style="" parent="0" />
        <mxCell id="kzhvxiY1sLsqxqUfxJGA-27" value="Texto" style="" parent="0" />
        <mxCell id="kzhvxiY1sLsqxqUfxJGA-85" value="Texto Diagrama" style="" parent="0" />
        <mxCell id="gFbD8LiAXBxWEcMymnvy-6" value="&lt;span style=&quot;font-size: 39px; text-align: left;&quot;&gt;Cros-Region Road Replica&lt;/span&gt;" style="text;html=1;align=center;verticalAlign=middle;whiteSpace=wrap;rounded=0;" parent="kzhvxiY1sLsqxqUfxJGA-85" vertex="1">
          <mxGeometry x="-880" y="660" width="480" height="30" as="geometry" />
        </mxCell>
        <mxCell id="gFbD8LiAXBxWEcMymnvy-7" value="&lt;span style=&quot;font-size: 39px; text-align: left;&quot;&gt;Cros-Region Road Replica&lt;/span&gt;" style="text;html=1;align=center;verticalAlign=middle;whiteSpace=wrap;rounded=0;" parent="kzhvxiY1sLsqxqUfxJGA-85" vertex="1">
          <mxGeometry x="760" y="670" width="480" height="30" as="geometry" />
        </mxCell>
        <mxCell id="AdwZOULkYBbnNzE8PJ5Z-53" value="&lt;font style=&quot;font-size: 14px;&quot;&gt;us-west-1b&lt;/font&gt;" style="fillColor=none;strokeColor=#147EBA;dashed=1;verticalAlign=top;fontStyle=0;fontColor=#147EBA;whiteSpace=wrap;html=1;" parent="kzhvxiY1sLsqxqUfxJGA-85" vertex="1">
          <mxGeometry x="1170" y="-240" width="310" height="710" as="geometry" />
        </mxCell>
        <mxCell id="AdwZOULkYBbnNzE8PJ5Z-54" value="&lt;span style=&quot;font-size: 14px;&quot;&gt;us-west-1a&lt;/span&gt;" style="fillColor=none;strokeColor=#147EBA;dashed=1;verticalAlign=top;fontStyle=0;fontColor=#147EBA;whiteSpace=wrap;html=1;" parent="kzhvxiY1sLsqxqUfxJGA-85" vertex="1">
          <mxGeometry x="760" y="-240" width="290" height="710" as="geometry" />
        </mxCell>
        <mxCell id="AdwZOULkYBbnNzE8PJ5Z-55" value="Public subnet" style="points=[[0,0],[0.25,0],[0.5,0],[0.75,0],[1,0],[1,0.25],[1,0.5],[1,0.75],[1,1],[0.75,1],[0.5,1],[0.25,1],[0,1],[0,0.75],[0,0.5],[0,0.25]];outlineConnect=0;gradientColor=none;html=1;fontSize=12;fontStyle=0;container=1;pointerEvents=0;collapsible=0;recursiveResize=0;shape=mxgraph.aws4.group;grIcon=mxgraph.aws4.group_security_group;grStroke=0;strokeColor=#7AA116;fillColor=#F2F6E8;verticalAlign=top;align=left;spacingLeft=30;fontColor=#248814;dashed=0;" parent="kzhvxiY1sLsqxqUfxJGA-85" vertex="1">
          <mxGeometry x="775" y="-200" width="240" height="140" as="geometry" />
        </mxCell>
        <mxCell id="AdwZOULkYBbnNzE8PJ5Z-56" value="Public subnet" style="points=[[0,0],[0.25,0],[0.5,0],[0.75,0],[1,0],[1,0.25],[1,0.5],[1,0.75],[1,1],[0.75,1],[0.5,1],[0.25,1],[0,1],[0,0.75],[0,0.5],[0,0.25]];outlineConnect=0;gradientColor=none;html=1;whiteSpace=wrap;fontSize=12;fontStyle=0;container=1;pointerEvents=0;collapsible=0;recursiveResize=0;shape=mxgraph.aws4.group;grIcon=mxgraph.aws4.group_security_group;grStroke=0;strokeColor=#7AA116;fillColor=#F2F6E8;verticalAlign=top;align=left;spacingLeft=30;fontColor=#248814;dashed=0;" parent="kzhvxiY1sLsqxqUfxJGA-85" vertex="1">
          <mxGeometry x="1215" y="-200" width="240" height="140" as="geometry" />
        </mxCell>
        <mxCell id="AdwZOULkYBbnNzE8PJ5Z-57" value="Private subnet" style="points=[[0,0],[0.25,0],[0.5,0],[0.75,0],[1,0],[1,0.25],[1,0.5],[1,0.75],[1,1],[0.75,1],[0.5,1],[0.25,1],[0,1],[0,0.75],[0,0.5],[0,0.25]];outlineConnect=0;gradientColor=none;html=1;whiteSpace=wrap;fontSize=12;fontStyle=0;container=1;pointerEvents=0;collapsible=0;recursiveResize=0;shape=mxgraph.aws4.group;grIcon=mxgraph.aws4.group_security_group;grStroke=0;strokeColor=#00A4A6;fillColor=#E6F6F7;verticalAlign=top;align=left;spacingLeft=30;fontColor=#147EBA;dashed=0;" parent="kzhvxiY1sLsqxqUfxJGA-85" vertex="1">
          <mxGeometry x="775" width="240" height="160" as="geometry" />
        </mxCell>
        <mxCell id="AdwZOULkYBbnNzE8PJ5Z-58" value="Private subnet" style="points=[[0,0],[0.25,0],[0.5,0],[0.75,0],[1,0],[1,0.25],[1,0.5],[1,0.75],[1,1],[0.75,1],[0.5,1],[0.25,1],[0,1],[0,0.75],[0,0.5],[0,0.25]];outlineConnect=0;gradientColor=none;html=1;whiteSpace=wrap;fontSize=12;fontStyle=0;container=1;pointerEvents=0;collapsible=0;recursiveResize=0;shape=mxgraph.aws4.group;grIcon=mxgraph.aws4.group_security_group;grStroke=0;strokeColor=#00A4A6;fillColor=#E6F6F7;verticalAlign=top;align=left;spacingLeft=30;fontColor=#147EBA;dashed=0;" parent="kzhvxiY1sLsqxqUfxJGA-85" vertex="1">
          <mxGeometry x="1215" y="10" width="240" height="160" as="geometry" />
        </mxCell>
        <mxCell id="AdwZOULkYBbnNzE8PJ5Z-59" value="Private subnet" style="points=[[0,0],[0.25,0],[0.5,0],[0.75,0],[1,0],[1,0.25],[1,0.5],[1,0.75],[1,1],[0.75,1],[0.5,1],[0.25,1],[0,1],[0,0.75],[0,0.5],[0,0.25]];outlineConnect=0;gradientColor=none;html=1;whiteSpace=wrap;fontSize=12;fontStyle=0;container=1;pointerEvents=0;collapsible=0;recursiveResize=0;shape=mxgraph.aws4.group;grIcon=mxgraph.aws4.group_security_group;grStroke=0;strokeColor=#00A4A6;fillColor=#E6F6F7;verticalAlign=top;align=left;spacingLeft=30;fontColor=#147EBA;dashed=0;" parent="kzhvxiY1sLsqxqUfxJGA-85" vertex="1">
          <mxGeometry x="775" y="250" width="240" height="150" as="geometry" />
        </mxCell>
        <mxCell id="AdwZOULkYBbnNzE8PJ5Z-60" value="Private subnet" style="points=[[0,0],[0.25,0],[0.5,0],[0.75,0],[1,0],[1,0.25],[1,0.5],[1,0.75],[1,1],[0.75,1],[0.5,1],[0.25,1],[0,1],[0,0.75],[0,0.5],[0,0.25]];outlineConnect=0;gradientColor=none;html=1;whiteSpace=wrap;fontSize=12;fontStyle=0;container=1;pointerEvents=0;collapsible=0;recursiveResize=0;shape=mxgraph.aws4.group;grIcon=mxgraph.aws4.group_security_group;grStroke=0;strokeColor=#00A4A6;fillColor=#E6F6F7;verticalAlign=top;align=left;spacingLeft=30;fontColor=#147EBA;dashed=0;" parent="kzhvxiY1sLsqxqUfxJGA-85" vertex="1">
          <mxGeometry x="1215" y="260" width="240" height="150" as="geometry" />
        </mxCell>
        <mxCell id="AdwZOULkYBbnNzE8PJ5Z-61" style="edgeStyle=orthogonalEdgeStyle;rounded=0;orthogonalLoop=1;jettySize=auto;html=1;" parent="kzhvxiY1sLsqxqUfxJGA-85" source="AdwZOULkYBbnNzE8PJ5Z-64" target="AdwZOULkYBbnNzE8PJ5Z-65" edge="1">
          <mxGeometry relative="1" as="geometry" />
        </mxCell>
        <mxCell id="AdwZOULkYBbnNzE8PJ5Z-62" value="" style="sketch=0;outlineConnect=0;fontColor=#232F3E;gradientColor=none;fillColor=#8C4FFF;strokeColor=none;dashed=0;verticalLabelPosition=bottom;verticalAlign=top;align=center;html=1;fontSize=12;fontStyle=0;aspect=fixed;pointerEvents=1;shape=mxgraph.aws4.nat_gateway;" parent="kzhvxiY1sLsqxqUfxJGA-85" vertex="1">
          <mxGeometry x="950" y="-180" width="48" height="48" as="geometry" />
        </mxCell>
        <mxCell id="AdwZOULkYBbnNzE8PJ5Z-63" value="" style="sketch=0;outlineConnect=0;fontColor=#232F3E;gradientColor=none;fillColor=#8C4FFF;strokeColor=none;dashed=0;verticalLabelPosition=bottom;verticalAlign=top;align=center;html=1;fontSize=12;fontStyle=0;aspect=fixed;pointerEvents=1;shape=mxgraph.aws4.nat_gateway;" parent="kzhvxiY1sLsqxqUfxJGA-85" vertex="1">
          <mxGeometry x="1392" y="-190" width="48" height="48" as="geometry" />
        </mxCell>
        <mxCell id="AdwZOULkYBbnNzE8PJ5Z-64" value="&lt;font&gt;Elastic&lt;/font&gt;&lt;div&gt;&lt;font&gt;Load Balancing&lt;/font&gt;&lt;/div&gt;" style="sketch=0;points=[[0,0,0],[0.25,0,0],[0.5,0,0],[0.75,0,0],[1,0,0],[0,1,0],[0.25,1,0],[0.5,1,0],[0.75,1,0],[1,1,0],[0,0.25,0],[0,0.5,0],[0,0.75,0],[1,0.25,0],[1,0.5,0],[1,0.75,0]];outlineConnect=0;fontColor=#232F3E;fillColor=#8C4FFF;strokeColor=#ffffff;dashed=0;verticalLabelPosition=bottom;verticalAlign=top;align=center;html=1;fontSize=12;fontStyle=0;aspect=fixed;shape=mxgraph.aws4.resourceIcon;resIcon=mxgraph.aws4.elastic_load_balancing;flipH=1;" parent="kzhvxiY1sLsqxqUfxJGA-85" vertex="1">
          <mxGeometry x="1080" y="-162" width="80" height="80" as="geometry" />
        </mxCell>
        <mxCell id="AdwZOULkYBbnNzE8PJ5Z-65" value="&lt;font&gt;Auto Scaling&lt;/font&gt;&lt;div&gt;&lt;font&gt;Web Server&lt;/font&gt;&lt;/div&gt;" style="sketch=0;points=[[0,0,0],[0.25,0,0],[0.5,0,0],[0.75,0,0],[1,0,0],[0,1,0],[0.25,1,0],[0.5,1,0],[0.75,1,0],[1,1,0],[0,0.25,0],[0,0.5,0],[0,0.75,0],[1,0.25,0],[1,0.5,0],[1,0.75,0]];outlineConnect=0;fontColor=#232F3E;fillColor=#ED7100;strokeColor=#ffffff;dashed=0;verticalLabelPosition=bottom;verticalAlign=top;align=right;html=1;fontSize=12;fontStyle=0;aspect=fixed;shape=mxgraph.aws4.resourceIcon;resIcon=mxgraph.aws4.auto_scaling3;fillStyle=auto;pointerEvents=0;strokeWidth=2;spacingLeft=30;fontFamily=Helvetica;flipH=1;" parent="kzhvxiY1sLsqxqUfxJGA-85" vertex="1">
          <mxGeometry x="1080" y="31" width="80" height="80" as="geometry" />
        </mxCell>
        <mxCell id="AdwZOULkYBbnNzE8PJ5Z-66" value="&lt;font color=&quot;#000000&quot;&gt;RDS-Primary-mysql&lt;/font&gt;" style="sketch=0;points=[[0,0,0],[0.25,0,0],[0.5,0,0],[0.75,0,0],[1,0,0],[0,1,0],[0.25,1,0],[0.5,1,0],[0.75,1,0],[1,1,0],[0,0.25,0],[0,0.5,0],[0,0.75,0],[1,0.25,0],[1,0.5,0],[1,0.75,0]];outlineConnect=0;fontColor=#FFFFFF;fillColor=#C925D1;strokeColor=#ffffff;dashed=0;verticalLabelPosition=bottom;verticalAlign=top;align=center;html=1;fontSize=14;fontStyle=0;aspect=fixed;shape=mxgraph.aws4.resourceIcon;resIcon=mxgraph.aws4.rds;fillStyle=auto;pointerEvents=0;strokeWidth=2;spacingLeft=30;fontFamily=Helvetica;flipH=1;" parent="kzhvxiY1sLsqxqUfxJGA-85" vertex="1">
          <mxGeometry x="858" y="290" width="80" height="80" as="geometry" />
        </mxCell>
        <mxCell id="AdwZOULkYBbnNzE8PJ5Z-67" value="&lt;font color=&quot;#000000&quot;&gt;Amazon Ec2&lt;/font&gt;&lt;div&gt;&lt;font color=&quot;#000000&quot;&gt;host&lt;/font&gt;&lt;/div&gt;" style="sketch=0;points=[[0,0,0],[0.25,0,0],[0.5,0,0],[0.75,0,0],[1,0,0],[0,1,0],[0.25,1,0],[0.5,1,0],[0.75,1,0],[1,1,0],[0,0.25,0],[0,0.5,0],[0,0.75,0],[1,0.25,0],[1,0.5,0],[1,0.75,0]];outlineConnect=0;fontColor=#FFFFFF;fillColor=#ED7100;strokeColor=#ffffff;dashed=0;verticalLabelPosition=bottom;verticalAlign=top;align=center;html=1;fontSize=12;fontStyle=0;aspect=fixed;shape=mxgraph.aws4.resourceIcon;resIcon=mxgraph.aws4.ec2;flipH=1;" parent="kzhvxiY1sLsqxqUfxJGA-85" vertex="1">
          <mxGeometry x="858" y="-170" width="80" height="80" as="geometry" />
        </mxCell>
        <mxCell id="AdwZOULkYBbnNzE8PJ5Z-68" value="&lt;font color=&quot;#000000&quot;&gt;Amazon Ec2&lt;/font&gt;&lt;div&gt;&lt;span style=&quot;background-color: initial; color: rgb(0, 0, 0);&quot;&gt;Web server&lt;/span&gt;&lt;/div&gt;&lt;div&gt;&lt;span style=&quot;background-color: initial; color: rgb(0, 0, 0);&quot;&gt;t&lt;/span&gt;&lt;/div&gt;" style="sketch=0;points=[[0,0,0],[0.25,0,0],[0.5,0,0],[0.75,0,0],[1,0,0],[0,1,0],[0.25,1,0],[0.5,1,0],[0.75,1,0],[1,1,0],[0,0.25,0],[0,0.5,0],[0,0.75,0],[1,0.25,0],[1,0.5,0],[1,0.75,0]];outlineConnect=0;fontColor=#FFFFFF;fillColor=#ED7100;strokeColor=#ffffff;dashed=0;verticalLabelPosition=bottom;verticalAlign=top;align=center;html=1;fontSize=12;fontStyle=0;aspect=fixed;shape=mxgraph.aws4.resourceIcon;resIcon=mxgraph.aws4.ec2;flipH=1;" parent="kzhvxiY1sLsqxqUfxJGA-85" vertex="1">
          <mxGeometry x="858" y="40" width="80" height="80" as="geometry" />
        </mxCell>
        <mxCell id="AdwZOULkYBbnNzE8PJ5Z-69" value="&lt;font color=&quot;#000000&quot;&gt;Amazon Ec2&lt;/font&gt;&lt;div&gt;&lt;span style=&quot;background-color: initial; color: rgb(0, 0, 0);&quot;&gt;Web server&lt;/span&gt;&lt;/div&gt;&lt;div&gt;&lt;span style=&quot;background-color: initial; color: rgb(0, 0, 0);&quot;&gt;t&lt;/span&gt;&lt;/div&gt;" style="sketch=0;points=[[0,0,0],[0.25,0,0],[0.5,0,0],[0.75,0,0],[1,0,0],[0,1,0],[0.25,1,0],[0.5,1,0],[0.75,1,0],[1,1,0],[0,0.25,0],[0,0.5,0],[0,0.75,0],[1,0.25,0],[1,0.5,0],[1,0.75,0]];outlineConnect=0;fontColor=#FFFFFF;fillColor=#ED7100;strokeColor=#ffffff;dashed=0;verticalLabelPosition=bottom;verticalAlign=top;align=center;html=1;fontSize=12;fontStyle=0;aspect=fixed;shape=mxgraph.aws4.resourceIcon;resIcon=mxgraph.aws4.ec2;flipH=1;" parent="kzhvxiY1sLsqxqUfxJGA-85" vertex="1">
          <mxGeometry x="1305" y="40" width="80" height="80" as="geometry" />
        </mxCell>
        <mxCell id="AdwZOULkYBbnNzE8PJ5Z-70" value="&lt;font color=&quot;#000000&quot;&gt;RDS-Read-replica&lt;/font&gt;" style="sketch=0;points=[[0,0,0],[0.25,0,0],[0.5,0,0],[0.75,0,0],[1,0,0],[0,1,0],[0.25,1,0],[0.5,1,0],[0.75,1,0],[1,1,0],[0,0.25,0],[0,0.5,0],[0,0.75,0],[1,0.25,0],[1,0.5,0],[1,0.75,0]];outlineConnect=0;fontColor=#FFFFFF;fillColor=#C925D1;strokeColor=#ffffff;dashed=0;verticalLabelPosition=bottom;verticalAlign=top;align=center;html=1;fontSize=14;fontStyle=0;aspect=fixed;shape=mxgraph.aws4.resourceIcon;resIcon=mxgraph.aws4.rds;fillStyle=auto;pointerEvents=0;strokeWidth=2;spacingLeft=30;fontFamily=Helvetica;flipH=1;" parent="kzhvxiY1sLsqxqUfxJGA-85" vertex="1">
          <mxGeometry x="1305" y="300" width="80" height="80" as="geometry" />
        </mxCell>
        <mxCell id="AdwZOULkYBbnNzE8PJ5Z-71" value="&lt;font&gt;Elastic&lt;/font&gt;&lt;div&gt;&lt;font&gt;Load Balancing&lt;/font&gt;&lt;/div&gt;" style="sketch=0;points=[[0,0,0],[0.25,0,0],[0.5,0,0],[0.75,0,0],[1,0,0],[0,1,0],[0.25,1,0],[0.5,1,0],[0.75,1,0],[1,1,0],[0,0.25,0],[0,0.5,0],[0,0.75,0],[1,0.25,0],[1,0.5,0],[1,0.75,0]];outlineConnect=0;fontColor=#232F3E;fillColor=#8C4FFF;strokeColor=#ffffff;dashed=0;verticalLabelPosition=bottom;verticalAlign=top;align=center;html=1;fontSize=12;fontStyle=0;aspect=fixed;shape=mxgraph.aws4.resourceIcon;resIcon=mxgraph.aws4.elastic_load_balancing;flipH=1;" parent="kzhvxiY1sLsqxqUfxJGA-85" vertex="1">
          <mxGeometry x="1080" y="270" width="70" height="70" as="geometry" />
        </mxCell>
        <mxCell id="AdwZOULkYBbnNzE8PJ5Z-72" style="edgeStyle=orthogonalEdgeStyle;rounded=0;orthogonalLoop=1;jettySize=auto;html=1;" parent="kzhvxiY1sLsqxqUfxJGA-85" source="AdwZOULkYBbnNzE8PJ5Z-65" edge="1">
          <mxGeometry relative="1" as="geometry">
            <mxPoint x="1120" y="270" as="targetPoint" />
          </mxGeometry>
        </mxCell>
        <mxCell id="AdwZOULkYBbnNzE8PJ5Z-73" style="edgeStyle=orthogonalEdgeStyle;rounded=0;orthogonalLoop=1;jettySize=auto;html=1;" parent="kzhvxiY1sLsqxqUfxJGA-85" source="HRck63KKs1VqO-XyOJvi-76" target="AdwZOULkYBbnNzE8PJ5Z-64" edge="1">
          <mxGeometry relative="1" as="geometry" />
        </mxCell>
      </root>
    </mxGraphModel>
  </diagram>
</mxfile>
